<!-- Generator: Adobe Illustrator 23.0.6, SVG Export Plug-In  -->
<svg version="1.1" xmlns="http://www.w3.org/2000/svg" xmlns:xlink="http://www.w3.org/1999/xlink" x="0px" y="0px" width="117px"
	 height="130px" viewBox="0 0 117 130" style="enable-background:new 0 0 117 130;" xml:space="preserve">
<style type="text/css">
	.st0{fill:#4D4D4D;}
	.st1{fill:none;}
</style>
<defs>
</defs>
<g>
	<g>
		<g id="XMLID_1_">
			<g>
				<path class="st0" d="M96.06,51.4c0.28,1.18,0.19,2.37,0.08,3.56c-0.1,1.01-0.2,2.02-0.41,3.01c-0.22,1.04-0.32,2.09-0.72,3.08
					c-0.41,0.99-0.72,2.02-1.04,3.04c-0.45,1.41-0.8,2.86-1.32,4.25c-0.51,1.41-1.17,2.78-1.8,4.15c-0.5,1.09-1.04,2.16-1.59,3.23
					c-0.28,0.53-0.63,1-0.94,1.49c-0.43,0.69-0.84,1.4-1.32,2.06c-0.65,0.89-1.31,1.78-2.06,2.6c-0.62,0.68-1.39,1.23-2.05,1.88
					c-0.66,0.65-1.4,1.19-2.2,1.68c-0.55,0.33-1.01,0.8-1.56,1.14c-0.7,0.43-1.44,0.81-2.17,1.2c-0.66,0.36-1.32,0.71-2,1.04
					c-0.87,0.43-1.75,0.83-2.74,1.01c-0.41,0.06-0.78,0.24-1.18,0.33c-0.54,0.14-1.08,0.26-1.63,0.33
					c-0.78,0.11-1.58,0.14-2.36,0.24c-0.72,0.09-1.45,0.26-2.17,0.36c-0.53,0.08-1.08,0.09-1.62,0.16
					c-1.15,0.14-2.29,0.33-3.43,0.44c-0.63,0.06-1.27,0.01-1.91,0.01c-0.53,0-1.05,0.02-1.57-0.01c-1.19-0.06-2.38-0.15-3.57-0.22
					c-0.67-0.05-1.34-0.09-2-0.16c-0.56-0.05-1.12-0.12-1.68-0.23c-0.97-0.18-1.93-0.41-2.92-0.6c-1.25-0.23-2.44-0.65-3.6-1.16
					c-0.07-0.03-0.15-0.04-0.24-0.07c-1.09-0.55-2.17-1.06-3.23-1.6c-0.68-0.34-1.36-0.69-2.03-1.07c-1.09-0.63-2.14-1.29-3.21-1.93
					c-0.41-0.25-0.84-0.44-1.22-0.7c-0.5-0.37-0.95-0.78-1.42-1.18c-0.85-0.71-1.71-1.41-2.52-2.15c-0.5-0.47-0.93-1.01-1.4-1.53
					c-0.46-0.5-0.96-0.97-1.36-1.52c-0.54-0.73-1.09-1.49-1.49-2.29c-0.78-1.63-1.51-3.27-2.2-4.95c-0.32-0.82-0.47-1.7-0.68-2.56
					c-0.18-0.75-0.36-1.5-0.53-2.26c-0.11-0.54-0.19-1.09-0.28-1.63c-0.11-0.65-0.21-1.3-0.31-1.95c-0.04-0.27-0.07-0.54-0.09-0.8
					c-0.04-0.52-0.04-1.04-0.09-1.56c-0.09-0.82-0.21-1.63-0.31-2.44c-0.02-0.12,0-0.25,0-0.38c0-0.33-0.02-0.66,0-0.99
					c0.01-0.51,0.03-1.04,0.08-1.55c0.06-0.51,0.16-1,0.24-1.5c0.16-0.87,0.33-1.74,0.48-2.61c0.13-0.73,0.19-1.46,0.34-2.18
					c0.2-1.03,0.42-2.05,0.69-3.06c0.26-0.9,0.62-1.76,0.87-2.65c0.28-0.99,0.48-2.01,0.77-2.99c0.18-0.58,0.48-1.15,0.78-1.71
					c0.41-0.72,0.83-1.44,1.31-2.13c0.7-1.02,1.29-2.1,2.14-3.03c0.91-0.99,1.7-2.09,2.54-3.13c0.16-0.2,0.32-0.41,0.5-0.6
					c0.7-0.69,1.41-1.36,2.1-2.05c0.21-0.21,0.38-0.44,0.6-0.63c1.03-0.85,2.06-1.69,3.11-2.52c0.41-0.33,0.82-0.68,1.29-0.92
					c0.91-0.47,1.88-0.87,2.81-1.29c0.58-0.26,1.17-0.53,1.76-0.79c1.83-0.8,3.67-1.62,5.62-2.15c1.01-0.28,2.05-0.47,3.08-0.69
					c0.67-0.14,1.34-0.26,2.01-0.38c0.1-0.01,0.21,0,0.32,0c1.04-0.06,2.08-0.11,3.12-0.16c0.36-0.01,0.71,0.01,1.07-0.01
					c0.2-0.01,0.41-0.07,0.61-0.06c0.66,0.04,1.32,0.06,1.98,0.16c1.01,0.16,2.02,0.36,3.01,0.59c0.58,0.13,1.14,0.31,1.71,0.5
					c0.74,0.25,1.46,0.52,2.2,0.78c0.17,0.06,0.33,0.16,0.5,0.23c0.89,0.33,1.79,0.63,2.67,0.98c0.87,0.36,1.74,0.75,2.62,1.11
					c0.66,0.28,1.34,0.55,2,0.83c0.64,0.26,1.29,0.5,1.9,0.81c0.92,0.47,1.87,0.93,2.72,1.51c1.19,0.8,2.47,1.5,3.56,2.47
					c0.92,0.82,1.92,1.57,2.84,2.39c0.72,0.65,1.42,1.31,2.07,2.03c0.45,0.5,0.82,1.07,1.19,1.64c0.5,0.75,1.02,1.49,1.42,2.28
					c0.51,1.02,0.95,2.08,1.38,3.13c0.53,1.28,1.09,2.56,1.53,3.87c0.44,1.34,0.75,2.73,1.14,4.1c0.2,0.72,0.44,1.44,0.63,2.17
					C95.59,49.49,95.84,50.45,96.06,51.4z M95.32,53.7c0.06-0.89,0.02-1.78-0.23-2.66c-0.26-0.99-0.38-2.03-0.77-2.96
					c-0.47-1.14-0.65-2.37-0.98-3.55c-0.23-0.82-0.49-1.65-0.79-2.46c-0.22-0.58-0.45-1.16-0.7-1.73c-0.58-1.4-1.13-2.81-1.78-4.18
					c-0.49-1.04-1.07-2.05-1.69-3.01c-0.6-0.93-1.29-1.82-2.17-2.55c-1.21-1-2.37-2.07-3.56-3.09c-0.36-0.31-0.75-0.59-1.16-0.87
					c-0.72-0.5-1.46-0.98-2.21-1.46c-0.53-0.34-1.06-0.68-1.62-0.99c-0.44-0.23-0.92-0.41-1.38-0.62c-0.53-0.23-1.05-0.48-1.58-0.71
					c-0.59-0.24-1.19-0.46-1.78-0.71c-0.94-0.38-1.85-0.8-2.79-1.18c-0.75-0.3-1.53-0.55-2.3-0.83c-1.02-0.38-2.03-0.78-3.05-1.13
					c-0.75-0.26-1.53-0.52-2.32-0.68c-1.14-0.23-2.32-0.38-3.47-0.54c-0.37-0.05-0.75-0.1-1.12-0.07c-1.03,0.08-2.06,0.2-3.17,0.3
					c-0.58,0.02-1.17,0.02-1.74,0.08c-0.5,0.06-1.04,0.04-1.3,0.63c-0.12,0.28-0.72,0.3-1.05,0.24c-0.41-0.08-0.87-0.14-1.27-0.06
					c-0.69,0.14-1.36,0.38-2.03,0.6c-0.59,0.2-1.16,0.42-1.73,0.64c-0.88,0.33-1.75,0.65-2.62,1.03c-0.79,0.33-1.54,0.77-2.35,1.07
					c-1.44,0.53-2.74,1.25-3.9,2.2c-0.49,0.39-1,0.75-1.47,1.15c-0.6,0.53-1.18,1.09-1.76,1.66c-0.43,0.41-0.84,0.83-1.26,1.24
					c-0.35,0.35-0.73,0.66-1.03,1.03c-0.8,0.97-1.54,1.99-2.33,2.95c-0.8,0.96-1.58,1.94-2.2,3.01c-0.34,0.58-0.7,1.14-1.04,1.71
					c-0.24,0.39-0.54,0.75-0.72,1.16c-0.28,0.68-0.55,1.35-0.68,2.09c-0.17,0.99-0.55,1.95-0.85,2.91
					c-0.42,1.36-0.98,2.67-1.15,4.09c-0.15,1.25-0.42,2.48-0.63,3.72c-0.1,0.58-0.17,1.15-0.24,1.72c-0.11,0.92-0.28,1.84-0.31,2.76
					c-0.03,0.95,0.08,1.9,0.14,2.85c0.04,0.53,0.11,1.07,0.16,1.6c0.1,0.97,0.21,1.93,0.32,2.91c0.06,0.48,0.09,0.97,0.18,1.44
					c0.13,0.63,0.31,1.25,0.46,1.87c0.26,1.09,0.48,2.2,0.82,3.28c0.27,0.9,0.66,1.76,1.03,2.62c0.38,0.89,0.75,1.79,1.2,2.64
					c0.37,0.7,0.82,1.36,1.31,1.99c0.7,0.87,1.44,1.72,2.23,2.54c0.5,0.54,1.09,1.01,1.65,1.49c0.52,0.45,1.04,0.89,1.57,1.31
					c0.5,0.41,0.98,0.85,1.52,1.21c0.87,0.55,1.74,1.09,2.64,1.58c1.23,0.68,2.48,1.34,3.73,1.97c1.11,0.57,2.22,1.12,3.35,1.63
					c0.68,0.29,1.39,0.52,2.11,0.72c0.99,0.26,1.99,0.48,3,0.68c0.9,0.16,1.8,0.28,2.69,0.38c0.64,0.08,1.28,0.11,1.91,0.16
					c1.24,0.08,2.49,0.18,3.74,0.22c1.51,0.06,3.03-0.04,4.53-0.22c1.06-0.13,2.12-0.26,3.18-0.38c1.29-0.15,2.56-0.35,3.84-0.44
					c1.09-0.08,2.16-0.28,3.19-0.63c0.96-0.31,1.95-0.59,2.86-0.99c1.06-0.46,2.07-1.02,3.07-1.56c0.74-0.4,1.47-0.83,2.16-1.31
					c0.82-0.57,1.6-1.17,2.35-1.79c0.52-0.43,0.98-0.9,1.46-1.36c0.38-0.36,0.8-0.7,1.1-1.12c0.77-1,1.52-2.03,2.22-3.08
					c0.62-0.92,1.19-1.88,1.74-2.84c0.55-0.97,1.05-1.95,1.54-2.96c0.48-0.98,0.95-1.98,1.35-2.99c0.29-0.72,0.44-1.49,0.68-2.23
					c0.63-1.88,1.28-3.75,1.91-5.61c0.2-0.6,0.43-1.19,0.55-1.79c0.18-0.88,0.3-1.78,0.41-2.68C95.14,55.75,95.26,54.73,95.32,53.7z
					"/>
				<path class="st0" d="M95.1,51.05c0.25,0.87,0.28,1.77,0.23,2.66c-0.06,1.02-0.18,2.05-0.31,3.06c-0.11,0.9-0.23,1.8-0.41,2.68
					c-0.12,0.6-0.36,1.19-0.55,1.79c-0.63,1.86-1.29,3.73-1.91,5.61c-0.24,0.74-0.39,1.51-0.68,2.23c-0.4,1.02-0.87,2.01-1.35,2.99
					c-0.49,1-0.99,1.99-1.54,2.96c-0.55,0.96-1.12,1.92-1.74,2.84c-0.7,1.05-1.45,2.08-2.22,3.08c-0.31,0.41-0.72,0.75-1.1,1.12
					c-0.48,0.46-0.94,0.93-1.46,1.36c-0.75,0.62-1.54,1.22-2.35,1.79c-0.69,0.48-1.42,0.91-2.16,1.31c-1,0.55-2.01,1.1-3.07,1.56
					c-0.92,0.4-1.9,0.68-2.86,0.99c-1.03,0.34-2.1,0.55-3.19,0.63c-1.29,0.09-2.56,0.29-3.84,0.44c-1.06,0.12-2.12,0.25-3.18,0.38
					c-1.51,0.18-3.02,0.28-4.53,0.22c-1.25-0.04-2.49-0.14-3.74-0.22c-0.63-0.04-1.27-0.08-1.91-0.16c-0.9-0.11-1.8-0.22-2.69-0.38
					c-1.01-0.19-2.01-0.42-3-0.68c-0.72-0.2-1.44-0.43-2.11-0.72c-1.14-0.5-2.25-1.06-3.35-1.63c-1.25-0.63-2.5-1.29-3.73-1.97
					c-0.9-0.5-1.78-1.03-2.64-1.58c-0.54-0.36-1.02-0.8-1.52-1.21c-0.53-0.42-1.05-0.86-1.57-1.31c-0.55-0.48-1.14-0.95-1.65-1.49
					c-0.79-0.82-1.53-1.66-2.23-2.54c-0.49-0.63-0.94-1.29-1.31-1.99c-0.45-0.85-0.82-1.75-1.2-2.64c-0.37-0.86-0.76-1.72-1.03-2.62
					c-0.34-1.07-0.56-2.19-0.82-3.28c-0.16-0.62-0.33-1.24-0.46-1.87c-0.09-0.47-0.13-0.95-0.18-1.44
					c-0.11-0.97-0.22-1.94-0.32-2.91c-0.06-0.53-0.12-1.07-0.16-1.6c-0.06-0.95-0.17-1.9-0.14-2.85c0.02-0.92,0.19-1.84,0.31-2.76
					c0.07-0.57,0.14-1.14,0.24-1.72c0.21-1.24,0.48-2.47,0.63-3.72c0.17-1.42,0.73-2.74,1.15-4.09c0.3-0.97,0.68-1.93,0.85-2.91
					c0.13-0.74,0.4-1.41,0.68-2.09c0.18-0.41,0.48-0.77,0.72-1.16c0.35-0.57,0.7-1.13,1.04-1.71c0.63-1.07,1.4-2.05,2.2-3.01
					c0.8-0.96,1.54-1.98,2.33-2.95c0.3-0.37,0.68-0.68,1.03-1.03c0.42-0.41,0.83-0.84,1.26-1.24c0.58-0.56,1.16-1.12,1.76-1.66
					c0.47-0.41,0.98-0.76,1.47-1.15c1.16-0.95,2.46-1.68,3.9-2.2c0.81-0.3,1.56-0.75,2.35-1.07c0.87-0.38,1.73-0.7,2.62-1.03
					c0.58-0.22,1.14-0.44,1.73-0.64c0.68-0.21,1.34-0.46,2.03-0.6c0.4-0.08,0.85-0.01,1.27,0.06c0.33,0.06,0.93,0.04,1.05-0.24
					c0.26-0.58,0.8-0.57,1.3-0.63c0.58-0.06,1.17-0.06,1.74-0.08c1.11-0.1,2.14-0.22,3.17-0.3c0.37-0.03,0.75,0.02,1.12,0.07
					c1.15,0.16,2.32,0.31,3.47,0.54c0.8,0.16,1.57,0.41,2.32,0.68c1.02,0.35,2.03,0.75,3.05,1.13c0.77,0.28,1.54,0.53,2.3,0.83
					c0.94,0.38,1.85,0.8,2.79,1.18c0.59,0.25,1.19,0.47,1.78,0.71c0.53,0.23,1.05,0.48,1.58,0.71c0.46,0.21,0.94,0.38,1.38,0.62
					c0.56,0.31,1.09,0.65,1.62,0.99c0.75,0.48,1.49,0.97,2.21,1.46c0.41,0.28,0.8,0.55,1.16,0.87c1.19,1.02,2.35,2.09,3.56,3.09
					c0.88,0.73,1.56,1.62,2.17,2.55c0.63,0.97,1.2,1.98,1.69,3.01c0.65,1.36,1.2,2.78,1.78,4.18c0.24,0.58,0.48,1.15,0.7,1.73
					c0.3,0.81,0.55,1.63,0.79,2.46c0.33,1.18,0.51,2.4,0.98,3.55C94.71,49.02,94.83,50.06,95.1,51.05z M78.65,31.5
					c0.16-0.66,0.24-0.65-0.43-1.02c-0.05-0.02-0.11-0.04-0.14-0.09c-0.19-0.26-0.47-0.29-0.79-0.21c-0.28,0.08-0.63,0.08-0.87,0.23
					c-0.71,0.43-1.37,0.93-2.08,1.39c-1.56,1.01-3.13,2.01-4.68,3.01c-0.66,0.43-1.29,0.88-1.95,1.29c-1.1,0.67-2.22,1.31-3.31,1.98
					c-1.46,0.88-2.89,1.79-4.36,2.65c-0.89,0.52-1.83,0.96-2.75,1.45c-0.69,0.38-1.31,0.87-2.05,1.15
					c-0.69,0.28-1.34,0.59-1.98,0.98c-0.58,0.35-1.25,0.57-1.87,0.86c-0.11,0.05-0.25,0.19-0.25,0.29c0,0.38-0.23,0.5-0.6,0.57
					c-0.59,0.1-0.9,0.46-0.9,0.98c0,0.08,0,0.16-0.04,0.23c-0.35,0.77-0.7,1.56-1.07,2.33c-0.45,0.97-0.92,1.94-1.39,2.89
					c-0.4,0.8-0.77,1.6-1.24,2.35c-0.72,1.14-1.54,2.25-2.31,3.38c-0.67,0.96-1.32,1.93-1.98,2.89c-0.14,0.21-0.24,0.45-0.36,0.68
					c-0.53,0.95-1.04,1.9-1.56,2.84c-0.34,0.64-0.72,1.27-1.05,1.91c-0.34,0.69-0.63,1.39-0.98,2.08c-0.53,1.09-1.12,2.16-1.63,3.25
					c-0.33,0.73-0.58,1.5-0.87,2.25c-0.18,0.48-0.37,0.97-0.51,1.46c-0.12,0.41,0.21,0.69,0.66,0.6c0.23-0.05,0.46-0.13,0.7-0.15
					c0.27-0.04,0.58,0.04,0.83-0.05c0.56-0.2,1.09-0.48,1.64-0.73c0.48-0.21,0.95-0.44,1.44-0.6c0.81-0.28,1.64-0.51,2.47-0.75
					c0.28-0.08,0.58-0.09,0.85-0.18c0.56-0.18,1.1-0.41,1.64-0.61c0.53-0.21,1.07-0.41,1.6-0.61c0.68-0.24,1.37-0.49,2.08-0.71
					c0.38-0.13,0.8-0.15,1.18-0.28c1.03-0.35,2.04-0.72,3.06-1.1c0.76-0.28,1.52-0.56,2.27-0.87c0.82-0.35,1.63-0.75,2.45-1.1
					c0.66-0.28,1.36-0.5,2.02-0.79c0.56-0.26,1.08-0.6,1.65-0.85c0.68-0.32,1.37-0.6,2.07-0.88c0.75-0.29,1.51-0.58,2.27-0.85
					c0.48-0.17,0.99-0.33,1.47-0.5c0.92-0.33,1.83-0.68,2.83-0.44c0.38,0.09,0.75-0.15,0.82-0.44c0.16-0.63,0.35-1.25,0.53-1.87
					c0.18-0.63,0.41-1.25,0.55-1.88c0.17-0.75,0.26-1.51,0.42-2.27c0.18-0.88,0.43-1.78,0.63-2.66c0.11-0.5,0.15-1.02,0.28-1.52
					c0.18-0.65,0.45-1.29,0.63-1.95c0.24-0.91,0.44-1.84,0.67-2.79c0.06-0.23,0.11-0.44,0.16-0.65c0.23-1.12,0.43-2.26,0.72-3.38
					c0.31-1.18,0.78-2.33,1.08-3.51c0.49-1.97,0.9-3.94,1.36-5.92c0.14-0.61,0.36-1.2,0.53-1.8C78.37,32.81,78.5,32.14,78.65,31.5z"
					/>
				<path class="st0" d="M78.22,30.48c0.67,0.36,0.58,0.36,0.43,1.02c-0.15,0.65-0.28,1.31-0.44,1.96c-0.16,0.6-0.39,1.19-0.53,1.8
					c-0.46,1.98-0.87,3.95-1.36,5.92c-0.3,1.18-0.77,2.33-1.08,3.51c-0.29,1.12-0.49,2.25-0.72,3.38c-0.04,0.21-0.09,0.42-0.16,0.65
					c-0.23,0.95-0.43,1.88-0.67,2.79c-0.18,0.65-0.45,1.29-0.63,1.95c-0.14,0.5-0.18,1.02-0.28,1.52c-0.2,0.88-0.44,1.78-0.63,2.66
					c-0.16,0.76-0.25,1.52-0.42,2.27c-0.14,0.63-0.36,1.24-0.55,1.88c-0.18,0.62-0.37,1.24-0.53,1.87
					c-0.08,0.29-0.45,0.53-0.82,0.44c-1-0.23-1.9,0.11-2.83,0.44c-0.48,0.17-0.99,0.33-1.47,0.5c-0.76,0.28-1.51,0.56-2.27,0.85
					c-0.7,0.28-1.39,0.56-2.07,0.88c-0.57,0.26-1.09,0.6-1.65,0.85c-0.66,0.29-1.36,0.51-2.02,0.79c-0.82,0.36-1.63,0.75-2.45,1.1
					c-0.75,0.31-1.51,0.59-2.27,0.87c-1.02,0.38-2.03,0.75-3.06,1.1c-0.38,0.13-0.8,0.15-1.18,0.28c-0.7,0.22-1.39,0.47-2.08,0.71
					c-0.53,0.2-1.07,0.41-1.6,0.61c-0.54,0.21-1.08,0.43-1.64,0.61c-0.27,0.09-0.58,0.1-0.85,0.18c-0.82,0.24-1.66,0.48-2.47,0.75
					c-0.49,0.16-0.97,0.39-1.44,0.6c-0.55,0.25-1.08,0.53-1.64,0.73c-0.25,0.09-0.56,0.01-0.83,0.05c-0.24,0.02-0.48,0.1-0.7,0.15
					c-0.45,0.09-0.78-0.19-0.66-0.6c0.14-0.49,0.33-0.97,0.51-1.46c0.28-0.75,0.53-1.51,0.87-2.25c0.51-1.09,1.1-2.16,1.63-3.25
					c0.35-0.69,0.64-1.39,0.98-2.08c0.33-0.64,0.71-1.27,1.05-1.91c0.53-0.95,1.04-1.9,1.56-2.84c0.11-0.23,0.21-0.46,0.36-0.68
					c0.66-0.97,1.31-1.93,1.98-2.89c0.77-1.13,1.58-2.24,2.31-3.38c0.48-0.75,0.85-1.56,1.24-2.35c0.48-0.95,0.94-1.92,1.39-2.89
					c0.37-0.77,0.72-1.56,1.07-2.33c0.04-0.07,0.04-0.16,0.04-0.23c0-0.52,0.31-0.88,0.9-0.98c0.38-0.07,0.6-0.19,0.6-0.57
					c0-0.1,0.14-0.24,0.25-0.29c0.62-0.29,1.29-0.51,1.87-0.86c0.64-0.39,1.29-0.7,1.98-0.98c0.73-0.28,1.36-0.77,2.05-1.15
					c0.92-0.49,1.86-0.93,2.75-1.45c1.46-0.86,2.9-1.77,4.36-2.65c1.09-0.66,2.21-1.31,3.31-1.98c0.67-0.41,1.29-0.85,1.95-1.29
					c1.55-1,3.12-2,4.68-3.01c0.7-0.45,1.36-0.95,2.08-1.39c0.25-0.15,0.59-0.15,0.87-0.23c0.32-0.08,0.6-0.04,0.79,0.21
					C78.12,30.44,78.17,30.46,78.22,30.48z M76.63,32.68c0.01-0.09-0.02-0.2-0.04-0.3c-0.08,0.06-0.16,0.13-0.24,0.18
					c-0.8,0.46-1.59,0.93-2.39,1.39c-0.75,0.43-1.53,0.82-2.27,1.26c-0.68,0.41-1.31,0.92-2.03,1.27c-1.34,0.66-2.66,1.34-3.87,2.2
					c-0.72,0.53-1.47,1.04-2.24,1.5c-0.95,0.58-1.9,1.11-2.86,1.64c-0.55,0.3-1.09,0.59-1.66,0.87c-0.7,0.34-1.41,0.67-2.11,1.01
					c-0.92,0.45-1.83,0.87-2.73,1.34c-0.17,0.09-0.26,0.33-0.36,0.52c-0.06,0.11-0.06,0.26-0.08,0.39
					c-0.17-0.05-0.34-0.11-0.51-0.16c-0.11-0.04-0.28-0.16-0.32-0.14c-0.67,0.48-1.49,0.87-1.93,1.49
					c-0.69,0.97-1.12,2.07-1.64,3.12c-0.64,1.29-1.19,2.61-1.93,3.85c-0.85,1.42-1.84,2.78-2.79,4.17
					c-0.19,0.28-0.46,0.53-0.65,0.81c-0.58,0.94-1.15,1.88-1.71,2.82c-0.52,0.88-1.03,1.76-1.51,2.66
					c-0.63,1.22-1.22,2.46-1.83,3.68c-0.4,0.8-0.86,1.58-1.24,2.39c-0.31,0.65-0.75,1.27-0.7,2c0.01,0.17-0.07,0.35-0.14,0.51
					c-0.14,0.35-0.29,0.68-0.43,1.02c-0.08,0.22,0.05,0.27,0.24,0.18c0.32-0.14,0.63-0.3,0.97-0.42c0.57-0.22,1.13-0.5,1.79-0.25
					c0.18,0.07,0.47,0.01,0.7-0.06c0.87-0.26,1.74-0.54,2.62-0.8c0.74-0.23,1.49-0.43,2.22-0.68c0.28-0.09,0.54-0.22,0.9-0.36
					c0.75-0.25,1.5-0.51,2.25-0.75c1.17-0.38,2.32-0.73,3.47-1.12c0.89-0.3,1.78-0.63,2.65-0.97c0.88-0.36,1.76-0.75,2.64-1.12
					c0.74-0.31,1.49-0.6,2.22-0.92c0.55-0.23,1.07-0.55,1.61-0.76c1.66-0.64,3.25-1.41,4.95-1.97c1.1-0.36,2.09-1.03,3.31-1.07
					c0.35-0.01,0.13-0.14,0.07-0.25c-0.1-0.24-0.3-0.54-0.21-0.72c0.38-0.82,0.8-1.61,1.03-2.49c0.28-1.09,0.69-2.18,1.11-3.25
					c0.6-1.48,0.76-3.03,1.14-4.54c0.17-0.64,0.24-1.29,0.43-1.93c0.33-1.09,0.6-2.17,0.82-3.28c0.26-1.24,0.69-2.48,1.05-3.71
					c0.31-1.04,0.71-2.06,0.97-3.11c0.38-1.42,0.63-2.87,0.79-4.32C76.3,34.55,76.48,33.61,76.63,32.68z M76.54,31.87
					c-0.01-0.02-0.01-0.04-0.01-0.07c-0.01,0.03-0.01,0.06-0.07,0.09c0,0.05,0.01,0.11,0.02,0.16
					C76.48,31.99,76.49,31.94,76.54,31.87z"/>
				<path class="st0" d="M62.85,51.73c0.63,0.9,0.41,1.82,0.28,2.76c-0.01,0.11-0.06,0.21-0.11,0.33c-0.31,0.49-0.53,1.01-0.89,1.41
					c-0.8,0.9-1.85,1.39-3.11,1.53c-1.02,0.12-1.9-0.21-2.7-0.66c-0.63-0.35-1.17-0.83-1.67-1.34C54.19,55.3,54,54.7,54.2,54.05
					c0.21-0.66,0.33-1.34,0.59-1.97c0.22-0.52,0.52-1.06,0.95-1.41c0.45-0.36,1.07-0.53,1.66-0.7c0.56-0.17,1.16-0.23,1.75-0.32
					c0.54-0.06,0.99,0.15,1.44,0.41c0.22,0.13,0.48,0.18,0.72,0.27C62.04,50.59,62.44,51.15,62.85,51.73z M62.43,53.42
					c0.02-0.83-0.33-1.54-1.08-2.1c-0.27-0.15-0.54-0.3-0.8-0.45c-0.88-0.5-1.81-0.41-2.76-0.23c-0.01,0.01-0.04,0.08-0.03,0.1
					c0.17,0.26,0.26,0.54,0.05,0.76c-0.11,0.11-0.41,0.04-0.63,0.04c-0.08,0-0.17-0.03-0.23,0c-0.48,0.23-0.97,0.44-1.04,1.03
					c-0.06,0.38-0.2,0.77-0.26,1.15c-0.14,0.85-0.18,1.68,0.7,2.27c0.16,0.11,0.33,0.21,0.5,0.32c0.48,0.31,0.99,0.51,1.58,0.54
					c0.82,0.02,1.55-0.2,2.22-0.62C61.74,55.57,62.4,54.66,62.43,53.42z"/>
				<path class="st0" d="M61.35,51.32c0.75,0.56,1.1,1.27,1.08,2.1c-0.03,1.24-0.69,2.15-1.79,2.81c-0.68,0.42-1.4,0.64-2.22,0.62
					c-0.6-0.03-1.11-0.23-1.58-0.54c-0.16-0.11-0.33-0.21-0.5-0.32c-0.87-0.59-0.83-1.42-0.7-2.27c0.06-0.38,0.21-0.77,0.26-1.15
					c0.08-0.59,0.57-0.8,1.04-1.03c0.06-0.03,0.16,0,0.23,0c0.22-0.01,0.53,0.06,0.63-0.04c0.21-0.22,0.12-0.5-0.05-0.76
					c-0.01-0.02,0.01-0.09,0.03-0.1c0.95-0.18,1.88-0.28,2.76,0.23C60.81,51.02,61.08,51.17,61.35,51.32z"/>
			</g>
			<g>
			</g>
		</g>
	</g>
	<g>
		<path class="st1" d="M117,130H0V0h117V130z M17,113h83V17H17V113z"/>
	</g>
</g>
</svg>
