<!-- Generator: Adobe Illustrator 24.2.1, SVG Export Plug-In  -->
<svg version="1.1" xmlns="http://www.w3.org/2000/svg" xmlns:xlink="http://www.w3.org/1999/xlink" x="0px" y="0px" width="216px"
	 height="240px" viewBox="0 0 216 240" style="overflow:visible;enable-background:new 0 0 216 240;" xml:space="preserve">
<style type="text/css">
	.st0{fill:none;}
	.st1{fill:#1EAAF1;}
	.st2{fill:#E6E6E6;}
	.st3{fill:#F7EA00;}
</style>
<defs>
</defs>
<g>
	<g>
		<path class="st0" d="M216,240H0V0h216V240z M31.38,208.62h153.23V31.38H31.38V208.62z"/>
	</g>
	<g>
		<path class="st1" d="M50.65,144.89c-0.41,0.41-0.67,0.97-0.89,1.58c0.11,0.31,0.23,0.61,0.34,0.92c0.07,0.2,0.15,0.4,0.23,0.6
			C50.64,147.03,50.83,146.02,50.65,144.89z"/>
		<path class="st2" d="M184.78,179.19c-0.21-0.83-0.86-1.24-1.59-1.5c-0.6-0.22-1.24-0.34-1.86-0.49c-0.26-0.06-0.53-0.12-0.8-0.12
			c-1.07-0.01-2.14-0.04-3.21,0.01c-0.53,0.03-0.94-0.19-1.35-0.42c-0.35-0.2-0.63-0.53-0.94-0.8c-0.28-0.24-0.55-0.51-0.85-0.72
			c-0.38-0.28-1.13-0.13-1.61,0.26c-0.16,0.13-0.34,0.31-0.53,0.33c-0.46,0.05-0.77,0.29-1.11,0.57c-0.3,0.25-0.64,0.56-1,0.63
			c-0.52,0.11-1.1,0.09-1.63,0.01c-0.89-0.13-1.72-0.51-2.54-0.88c-0.67-0.3-1.33-0.6-1.99-0.9c-0.31-0.14-0.62-0.27-0.91-0.43
			c-0.55-0.3-1.17-0.46-1.74-0.3c-1.03,0.29-2.08,0.51-3.07,0.92c-0.47,0.19-1.02,0.27-1.52,0.25c-0.54-0.02-1.08-0.2-1.61-0.35
			c-0.46-0.13-0.49-0.27-0.25-0.74c0.34-0.68,0.86-1.24,1.34-1.81c0.43-0.51,0.94-0.95,1.41-1.42c0.5-0.5,1.05-0.95,1.48-1.51
			c0.32-0.41,0.5-0.98,0.4-1.5c-0.11-0.66-0.37-1.3-0.58-1.94c-0.11-0.35-0.23-0.72-0.57-0.89c-0.28-0.14-0.65-0.3-0.92-0.23
			c-1.25,0.34-2.46,0.82-3.54,1.56c-0.59,0.4-1.15,0.86-1.71,1.3c-0.95,0.74-1.64,1.67-2.33,2.62c-0.38,0.53-0.63,1.16-1.01,1.7
			c-0.33,0.46-0.8,0.93-1.41,0.78c-0.72-0.17-1.44-0.13-2.15-0.18c-1.47-0.12-2.95,0.01-4.4-0.39c-0.86-0.24-1.74-0.4-2.61-0.58
			c-0.71-0.14-1.42-0.24-2.09-0.52c-0.53-0.22-1.1-0.39-1.61-0.65c-1-0.51-1.98-1.09-2.97-1.61c-0.29-0.16-0.64-0.22-0.95-0.35
			c-1.3-0.55-2.65-0.96-4.03-1.25c-1.22-0.26-2.39-0.68-3.58-1.03c-1.02-0.3-2.02-0.68-3.02-1.05c-0.72-0.26-1.44-0.52-2.13-0.86
			c-0.54-0.26-1.03-0.64-1.55-0.96c-0.58-0.36-1.17-0.69-1.74-1.07c-1.07-0.72-2.13-1.45-3.13-2.26c-0.86-0.69-1.72-1.37-2.5-2.16
			c-0.74-0.75-1.48-1.52-2.19-2.31c-0.71-0.79-1.42-1.58-2.05-2.43c-0.8-1.09-1.53-2.24-2.29-3.36c-0.06-0.08-0.08-0.14-0.07-0.19
			c-5.46-0.84-10.98-1.46-15.44,0.62c0.76-0.22,1.53-0.43,2.32-0.58c0.78-0.14,1.56-0.14,2.33-0.25c1.14-0.16,2.28-0.02,3.41-0.1
			c0.29-0.02,0.49,0.12,0.59,0.32c0.52,1.06,1.24,2,1.9,2.97c0.29,0.42,0.62,0.8,0.94,1.19c0.48,0.57,1.01,1.1,1.45,1.71
			c0.58,0.82,1.26,1.54,1.99,2.2c0.95,0.85,1.96,1.62,2.92,2.46c0.77,0.68,1.59,1.29,2.46,1.84c1.01,0.63,2.04,1.24,3.04,1.89
			c0.53,0.34,1.08,0.61,1.68,0.77c0.09,0.02,0.18,0.06,0.27,0.07c0.22,0.02,0.32-0.03,0.15-0.26c-0.28-0.38-0.49-0.81-0.93-1.08
			c-0.35-0.21-0.63-0.53-0.95-0.79c-0.74-0.59-1.44-1.23-2.23-1.77c-0.71-0.48-1.33-1.08-2-1.62c-0.8-0.65-1.61-1.29-2.41-1.93
			c-0.09-0.08-0.17-0.17-0.26-0.26c-1.16-1.08-2.22-2.23-3.08-3.56c-0.17-0.26-0.37-0.51-0.6-0.72c-0.73-0.66-1.2-1.52-1.77-2.3
			c-0.19-0.27-0.39-0.53-0.59-0.79c-0.04-0.05-0.07-0.11-0.11-0.17c0.08-0.05,0.16-0.14,0.24-0.15c0.38-0.02,0.79-0.09,1.15,0.01
			c0.46,0.13,0.91,0.12,1.35,0.08c0.42-0.04,0.68,0.15,0.85,0.44c0.78,1.32,1.72,2.52,2.59,3.77c0.52,0.75,1.15,1.43,1.75,2.13
			c0.78,0.91,1.49,1.9,2.38,2.7c0.73,0.65,1.34,1.44,2.22,1.93c0.52,0.29,0.93,0.77,1.41,1.14c0.85,0.63,1.7,1.25,2.57,1.84
			c0.67,0.46,1.36,0.9,2.06,1.33c0.94,0.59,1.9,1.13,2.96,1.49c0.94,0.31,1.86,0.67,2.8,1c1.34,0.48,2.69,0.97,4.08,1.26
			c1.04,0.22,2.05,0.52,3.08,0.78c0.58,0.14,1.12,0.43,1.68,0.62c0.74,0.24,1.37,0.71,2.05,1.05c1.1,0.55,2.19,1.12,3.39,1.49
			c0.74,0.23,1.48,0.33,2.23,0.47c0.6,0.11,1.19,0.25,1.78,0.38c0.33,0.07,0.66,0.17,1,0.22c0.45,0.06,0.9,0.06,1.34,0.13
			c1.48,0.22,2.96,0.07,4.44,0.12c0.17,0.01,0.33,0.1,0.5,0.11c0.71,0.05,1.33-0.15,1.86-0.64c0.42-0.39,0.71-0.86,0.99-1.35
			c0.67-1.16,1.49-2.2,2.48-3.1c1.12-1.02,2.41-1.79,3.79-2.43c0.34-0.16,0.68-0.31,1.03-0.45c0.26-0.11,0.56-0.03,0.65,0.23
			c0.21,0.58,0.4,1.18,0.53,1.78c0.14,0.66-0.27,1.14-0.67,1.59c-0.26,0.29-0.53,0.56-0.86,0.8c-0.55,0.4-0.96,0.99-1.43,1.5
			c-0.33,0.37-0.64,0.76-0.99,1.1c-0.53,0.51-0.78,1.16-0.97,1.84c-0.03,0.12,0.02,0.3,0.11,0.41c0.21,0.26,0.45,0.47,0.79,0.57
			c0.6,0.18,1.19,0.36,1.81,0.48c1.11,0.22,2.06-0.22,3.07-0.45c0.74-0.17,1.46-0.49,2.25-0.43c0.21,0.02,0.44,0.03,0.61,0.13
			c1.1,0.61,2.31,0.97,3.47,1.45c0.4,0.16,0.77,0.39,1.18,0.51c1.09,0.33,2.19,0.48,3.33,0.22c0.55-0.12,0.93-0.5,1.38-0.77
			c0.31-0.19,0.6-0.37,0.96-0.47c0.3-0.08,0.58-0.28,0.83-0.47c0.23-0.19,0.38-0.13,0.55,0.06c0.49,0.51,1.01,0.99,1.61,1.38
			c0.48,0.31,0.98,0.51,1.55,0.51c1.11,0,2.22,0.01,3.34,0c0.9-0.01,1.76,0.15,2.59,0.49c0.22,0.09,0.44,0.25,0.61,0.42
			c0.09,0.09,0.18,0.32,0.13,0.41c-0.18,0.31-0.19,0.7-0.49,0.95c-0.76,0.66-1.48,1.38-2.28,1.99c-0.37,0.29-0.87,0.44-1.33,0.57
			c-0.85,0.24-1.63,0.65-2.46,0.94c-0.32,0.11-0.64,0.22-0.98,0.27c-0.44,0.07-0.9,0.07-1.34,0.13c-0.6,0.09-1.2,0.21-1.81,0.32
			c-0.24,0.04-0.49,0.11-0.74,0.12c-0.62,0.03-1.19,0.3-1.83,0.3c-0.64,0-1.28,0.21-1.91,0.34c-0.52,0.11-1.03,0.24-1.55,0.36
			c-0.09,0.02-0.23,0.02-0.27,0.08c-0.37,0.57-1.05,0.49-1.57,0.75c-0.46,0.23-1.04,0.21-1.53,0.41c-0.61,0.26-1.26,0.26-1.87,0.46
			c-0.29,0.09-0.58,0.17-0.87,0.24c-0.07,0.02-0.15-0.03-0.22-0.05c0.02-0.07,0.03-0.17,0.08-0.2c0.6-0.45,1.18-0.93,1.82-1.31
			c1.29-0.75,2.69-1.31,4.03-1.98c0.62-0.31,1.31-0.58,1.73-1.25c0.35-0.55,0.39-1.11,0.32-1.68c-0.04-0.36-0.24-0.71-0.4-1.04
			c-0.35-0.74-1.03-1.03-1.78-1.09c-0.8-0.06-1.6-0.08-2.38-0.27c-0.34-0.08-0.66-0.26-0.99-0.4c-0.48-0.2-0.96-0.42-1.45-0.59
			c-0.29-0.1-0.6-0.18-0.9-0.17c-0.63,0.03-1.25-0.38-1.89-0.05c-0.03,0.02-0.08,0-0.12,0c-1.78,0.04-3.57,0.14-5.35,0.1
			c-0.99-0.03-1.97-0.32-2.95-0.45c-0.56-0.08-1.15-0.04-1.71-0.14c-0.74-0.13-1.35,0.13-1.95,0.48c-0.16,0.1-0.33,0.21-0.46,0.34
			c-0.34,0.36-0.64,0.76-1,1.1c-0.61,0.59-1.3,1.12-2.07,1.43c-0.83,0.34-1.68,0.74-2.64,0.66c-0.69-0.06-1.35-0.21-1.98-0.49
			c-0.79-0.35-1.57-0.7-2.36-1.03c-0.41-0.17-0.84-0.32-1.28-0.42c-0.78-0.18-1.48-0.53-2.16-0.94c-0.52-0.31-1-0.68-1.54-0.96
			c-0.2-0.11-0.36-0.3-0.56-0.4c-0.73-0.37-1.44-0.8-2.23-1.05c-0.05-0.02-0.11-0.04-0.16-0.05c-0.59-0.04-1.18-0.14-1.77-0.11
			c-0.72,0.03-1.37-0.2-2.02-0.41c-0.49-0.16-0.94-0.47-1.42-0.67c-0.99-0.41-2-0.74-3.11-0.6c-0.29,0.04-0.6,0.07-0.9,0.09
			c-0.55,0.04-1.1,0.07-1.65,0.12c-0.93,0.1-1.82,0.37-2.72,0.62c-0.26,0.07-0.52,0.27-0.71,0.46c-0.29,0.3-0.66,0.45-1.01,0.65
			c-0.35,0.19-0.71,0.34-1.02,0.62c-0.46,0.42-0.96,0.41-1.43,0.02c-0.22-0.18-0.41-0.43-0.56-0.67c-0.54-0.88-1.1-1.76-1.58-2.68
			c-0.65-1.24-1.56-2.27-2.54-3.26c-0.4-0.41-0.76-0.86-1.17-1.27c-0.21-0.21-0.09-0.36,0.07-0.42c0.4-0.15,0.46-0.46,0.41-0.79
			c-0.04-0.32-0.08-0.67-0.25-0.92c-0.35-0.54-0.57-1.16-1.06-1.63c-0.87-0.84-1.73-1.69-2.57-2.57c-0.57-0.6-1.09-1.24-1.64-1.87
			c-1.35-1.39-2.61-2.74-3.93-4.03c-0.53-0.52-1.18-0.92-1.81-1.33c-0.45-0.3-0.94-0.46-1.51-0.23c-0.38,0.15-0.81,0.22-1.23,0.24
			c-0.43,0.02-0.86-0.05-1.28-0.11c-0.43-0.06-0.86-0.18-1.3-0.23c-0.49-0.06-0.98-0.06-1.46-0.13c-0.7-0.11-1.38-0.28-2.08-0.4
			c-0.86-0.15-1.68-0.49-2.55-0.55c-5.15,5.8-4.78,14.54-4.21,23.29c0.18,0.06,0.34,0.15,0.5,0.26c0.39,0.25,0.73,0.57,1.11,0.85
			c0.81,0.6,1.62,1.21,2.52,1.68c0.96,0.51,1.91,1.06,2.87,1.57c1.07,0.58,2.15,1.15,3.24,1.7c0.7,0.35,1.42,0.66,2.14,0.97
			c1.05,0.45,2.1,0.88,3.14,1.35c0.2,0.09,0.51,0.15,0.45,0.52c-0.03,0.21,0.11,0.3,0.33,0.33c0.43,0.06,0.88,0.12,1.29,0.24
			c1.42,0.43,2.82,0.92,4.25,1.32c0.93,0.26,1.83,0.6,2.79,0.76c0.68,0.11,1.32,0.45,2,0.57c1.26,0.22,2.5,0.54,3.76,0.77
			c1.06,0.19,2.14,0.28,3.2,0.44c0.66,0.1,1.34,0.02,2.01,0.12c0.78,0.11,1.58,0,2.38,0.12c0.9,0.13,1.82,0,2.74,0.12
			c1.06,0.14,2.15-0.02,3.23,0.12c1.06,0.14,2.15,0,3.23,0.12c1.35,0.15,2.71,0.02,4.07,0.11c2.18,0.15,4.37-0.03,6.56,0.13
			c1.47,0.11,2.95-0.02,4.43,0.03c0.97,0.03,1.92-0.16,2.87-0.28c0.78-0.09,1.56-0.15,2.33-0.2c1.44-0.1,2.88-0.1,4.32-0.14
			c0.11,0,0.22-0.06,0.32-0.1c0.37-0.13,0.73-0.31,1.12-0.37c0.89-0.15,1.8-0.27,2.7-0.37c0.69-0.07,1.38-0.09,2.07-0.13
			c0.1-0.01,0.22,0.03,0.3-0.01c0.53-0.24,1.11-0.09,1.66-0.22c0.62-0.15,1.26-0.18,1.89-0.28c0.6-0.1,1.2-0.22,1.8-0.34
			c0.54-0.11,1.08-0.23,1.61-0.37c0.56-0.15,1.11-0.35,1.68-0.48c1.01-0.23,1.96-0.65,2.93-0.98c0.41-0.14,0.8-0.3,1.24-0.38
			c1.03-0.2,2.04-0.53,3.06-0.79c1.06-0.27,2.15-0.4,3.24-0.51c0.88-0.09,1.73-0.27,2.52-0.66c0.65-0.32,1.32-0.52,2.02-0.69
			c0.6-0.15,1.21-0.33,1.7-0.72c0.57-0.46,1.12-0.96,1.62-1.5c0.35-0.38,0.74-0.74,0.91-1.25
			C184.6,180.07,184.9,179.68,184.78,179.19z M104.35,154.32c0.06-0.02,0.07,0.01,0.07,0.05
			C104.4,154.35,104.37,154.34,104.35,154.32z M141.36,190.05c-0.63,0-1.25-0.02-1.88,0.01c-0.33,0.01-0.68-0.14-0.98,0.11
			c-0.29-0.28-0.58-0.01-0.87-0.01c-0.37,0-0.75,0.13-1.1-0.11c-0.04-0.03-0.12-0.02-0.18,0c-0.86,0.22-1.72-0.16-2.57,0.01
			c-0.61,0.12-1.22,0.11-1.83,0.1c-0.25,0-0.5,0.09-0.75-0.1c-0.09-0.06-0.32,0.11-0.48,0.1c-0.45-0.03-0.91,0.13-1.35-0.11
			c-0.03-0.02-0.08,0-0.12,0c-0.62,0.03-1.24,0.06-1.87,0.08c-0.2,0-0.4-0.07-0.6-0.07c-1.15-0.01-2.3,0-3.46-0.01
			c-0.34,0-0.71-0.13-1.01-0.03c-0.37,0.12-0.64-0.13-0.96-0.08c-0.35,0.06-0.7,0-1.05,0c-0.38,0-0.77,0-1.15,0
			c-0.26,0-0.56,0.08-0.78-0.02c-0.25-0.11-0.41,0.12-0.64,0.03c-0.23-0.08-0.49-0.08-0.73-0.14c-0.25-0.06-0.48,0.1-0.76,0.02
			c-0.28-0.08-0.6-0.02-0.9-0.02c-0.28,0-0.57-0.04-0.85,0.01c-0.41,0.07-0.75-0.23-1.2-0.07c-0.35,0.12-0.8-0.01-1.2-0.06
			c-0.94-0.11-1.88-0.24-2.82-0.36c-0.57-0.08-1.15-0.15-1.72-0.25c-0.28-0.05-0.54-0.17-0.81-0.23c-0.7-0.16-1.38-0.42-2.1-0.5
			c-0.28-0.03-0.54-0.16-0.81-0.23c-0.49-0.13-0.99-0.24-1.49-0.37c-0.11-0.03-0.2-0.11-0.29-0.17c0.07-0.06,0.13-0.15,0.22-0.18
			c0.31-0.11,0.11-0.28,0-0.31c-1.04-0.27-1.9-1.03-3.03-1.04c-0.53-0.01-1.1-0.06-1.59-0.25c-1.12-0.43-2.26-0.78-3.37-1.22
			c-0.53-0.21-1.02-0.61-1.64-0.59c-0.58-0.47-1.35-0.55-1.96-0.98c-0.15-0.1-0.36-0.1-0.53-0.18c-0.77-0.39-1.52-0.82-2.3-1.19
			c-0.63-0.29-1.18-0.73-1.86-0.93c-0.33-0.1-0.59-0.43-0.91-0.58c-1.21-0.57-2.35-1.28-3.48-1.98c-0.75-0.47-1.39-1.12-2.13-1.6
			c-0.52-0.33-0.64-0.73-0.59-1.28c0.06-0.63,0.08-1.26,0.13-1.89c0.01-0.09,0.08-0.17,0.13-0.25c0.07,0.04,0.15,0.06,0.21,0.12
			c0.88,0.8,1.74,1.63,2.65,2.39c0.74,0.61,1.55,1.13,2.33,1.69c0.67,0.48,1.33,0.99,2.01,1.45c0.6,0.4,1.23,0.74,1.84,1.12
			c0.79,0.49,1.57,1,2.35,1.5c0.78,0.5,1.57,1,2.34,1.52c0.66,0.45,1.39,0.74,2.13,1.02c0.47,0.18,0.95,0.22,1.44,0.19
			c0.05,0,0.1-0.04,0.16-0.06c-0.03-0.07-0.04-0.16-0.09-0.2c-0.28-0.2-0.54-0.44-0.85-0.58c-1.27-0.59-2.41-1.41-3.63-2.08
			c-0.7-0.38-1.34-0.87-2.02-1.29c-0.58-0.36-1.19-0.66-1.75-1.04c-0.77-0.53-1.63-0.89-2.37-1.48c-0.71-0.57-1.53-1-2.27-1.53
			c-0.71-0.51-1.38-1.07-2.06-1.62c-0.74-0.61-1.45-1.25-2.22-1.83c-0.27-0.21-0.41-0.43-0.33-0.7c0.19-0.63,0.06-1.26,0.11-1.89
			c0.01-0.17,0.05-0.33,0.08-0.5c0.19,0.08,0.41,0.11,0.57,0.23c1.26,0.95,2.48,1.96,3.8,2.84c0.49,0.33,0.88,0.8,1.33,1.19
			c0.64,0.54,1.3,1.06,1.95,1.59c0.57,0.48,1.12,1,1.71,1.45c0.88,0.68,1.75,1.37,2.72,1.93c1.24,0.72,2.5,1.36,3.86,1.82
			c0.83,0.28,1.62,0.68,2.43,1.01c1.14,0.47,2.28,0.94,3.42,1.4c0.55,0.22,1.12,0.41,1.67,0.66c1.11,0.5,2.25,0.92,3.41,1.27
			c0.92,0.28,1.86,0.5,2.79,0.73c0.17,0.04,0.36,0.01,0.54,0.01c0.94,0.24,1.83,0.46,2.72,0.35c0.55-0.07,1.11-0.06,1.67-0.21
			c0.47-0.13,0.97-0.12,1.46-0.13c0.91-0.02,1.83-0.08,2.73,0.02c0.55,0.06,1.12,0.01,1.67,0.2c0.38,0.13,0.81,0.11,1.22,0.13
			c0.87,0.05,1.75,0.03,2.62,0.14c1.72,0.21,3.45,0,5.17,0.13c0.84,0.07,1.7,0.08,2.52,0.33c0.32,0.1,0.69,0.08,1.04,0.11
			c1.17,0.1,2.26,0.48,3.36,0.82c1.38,0.43,2.69,1.02,4.01,1.6c0.56,0.25,1.13,0.49,1.7,0.73c0.07,0.03,0.15,0.04,0.2,0.09
			c0.09,0.07,0.16,0.17,0.24,0.25C141.59,190.02,141.48,190.05,141.36,190.05z"/>
		<path class="st3" d="M82.52,153.79c-0.02,0-0.04-0.01-0.07-0.01c-0.17-0.01-0.22-0.07-0.19-0.21c0.02-0.11,0.04-0.24,0.11-0.32
			c0.98-1.1,2.11-2.01,3.54-2.44c0.27-0.08,0.54-0.16,0.81-0.24c4.46-2.08,9.98-1.47,15.44-0.62c0.01-0.05,0.07-0.07,0.19-0.06
			c0.75,0.04,1.52,0.01,2.25,0.14c0.82,0.15,1.65,0.17,2.46,0.33c0.72,0.14,1.47,0.17,2.2,0.26c0.37,0.04,0.73,0.08,1.1,0.13
			c0.7,0.11,1.4,0.21,2.1,0.36c0.43,0.1,0.87,0.08,1.3,0.22c0.6,0.19,1.23,0.25,1.85,0.38c0.67,0.14,1.33,0.3,2,0.45
			c0.53,0.13,1.06,0.28,1.6,0.39c0.9,0.18,1.81,0.33,2.71,0.49c0.51,0.09,1.03,0.14,1.54,0.25c0.67,0.14,1.32,0.34,1.99,0.47
			c0.87,0.18,1.75,0.33,2.6,0.61c1.22,0.39,2.45,0.73,3.67,1.1c0.94,0.29,1.86,0.61,2.85,0.75c0.43,0.06,0.89,0.1,1.32,0.32
			c0.43,0.22,0.94,0.26,1.42,0.39c0.71,0.18,1.42,0.39,2.14,0.55c0.77,0.17,1.54,0.38,2.31,0.4c1.85,0.04,3.7,0.11,5.54-0.22
			c0.75-0.13,1.51-0.14,2.27-0.23c0.75-0.09,1.45-0.29,2.16-0.51c1.59-0.49,3.14-1.03,4.49-2.04c0.29-0.21,0.62-0.37,0.92-0.56
			c0.41-0.28,0.85-0.53,1.22-0.86c0.65-0.6,1.24-1.27,1.89-1.86c0.62-0.56,1.04-1.27,1.49-1.94c0.55-0.82,1-1.72,1.46-2.61
			c0.41-0.78,0.77-1.58,1.16-2.37c0.13-0.27,0.32-0.52,0.42-0.8c0.36-1.03,0.9-1.97,1.3-2.98c0.33-0.85,0.69-1.7,1.01-2.55
			c0.25-0.65,0.48-1.3,0.7-1.96c0.3-0.89,0.61-1.77,0.88-2.67c0.25-0.83,0.42-1.68,0.68-2.51c0.39-1.23,0.84-2.44,1.23-3.67
			c0.32-1,0.66-2.01,0.87-3.03c0.3-1.43,0.75-2.82,1.03-4.26c0.22-1.13,0.44-2.28,0.67-3.41c0.16-0.78,0.2-1.59,0.25-2.38
			c0.07-1.09,0.13-2.19,0.12-3.29c-0.01-1.22,0.13-2.44-0.11-3.65c-0.08-0.38-0.06-0.78-0.16-1.15c-0.3-1.06-0.64-2.12-0.98-3.17
			c-0.22-0.68-0.58-1.27-1.04-1.82c-0.6-0.72-1.14-1.48-1.75-2.18c-0.88-1-1.96-1.81-2.92-2.72c-1.04-0.99-2.07-1.98-3.17-2.9
			c-0.72-0.6-1.44-1.2-2.17-1.8c-0.24-0.2-0.47-0.42-0.72-0.6c-1.13-0.78-2.27-1.55-3.41-2.32c-0.57-0.38-1.13-0.78-1.74-1.08
			c-2.19-1.06-4.3-2.28-6.57-3.16c-0.63-0.25-1.25-0.49-1.88-0.74c-0.8-0.31-1.6-0.64-2.4-0.94c-0.68-0.26-1.37-0.51-2.06-0.75
			c-0.62-0.22-1.26-0.37-1.86-0.64c-1.05-0.47-2.14-0.81-3.26-1.05c-0.81-0.17-1.64-0.25-2.46-0.37c-0.25-0.04-0.49-0.08-0.74-0.12
			c-0.57-0.1-1.13-0.19-1.7-0.29c-0.58-0.1-1.16-0.22-1.75-0.32c-0.36-0.06-0.74-0.05-1.1-0.13c-0.85-0.21-1.71-0.33-2.58-0.36
			c-0.14,0-0.29,0.03-0.42-0.01c-0.81-0.19-1.63-0.16-2.45-0.23c-0.34-0.03-0.7,0.13-1.04,0.1c-0.74-0.08-1.42,0.22-2.14,0.28
			c-0.73,0.06-1.44,0.33-2.17,0.45c-0.87,0.15-1.76,0.24-2.64,0.37c-0.67,0.1-1.35,0.21-1.99,0.48c-1.14,0.47-2.29,0.92-3.43,1.38
			c-0.66,0.27-1.32,0.53-1.97,0.81c-0.63,0.28-1.27,0.55-1.89,0.87c-0.47,0.24-0.91,0.55-1.35,0.83c-0.46,0.3-0.94,0.58-1.37,0.93
			c-0.73,0.58-1.09,1.44-1.56,2.2c-0.71,1.13-0.87,2.47-1.33,3.69c-0.3,0.81-0.53,1.65-0.73,2.49c-0.14,0.61-0.41,1.17-0.52,1.79
			c-0.12,0.68-0.38,1.33-0.63,1.98c-0.53,1.4-1.1,2.78-1.62,4.18c-0.3,0.83-0.62,1.65-0.53,2.58c0.09,0.95,0.76,1.83,1.6,2.13
			c0.63,0.23,1.28,0.41,1.9,0.68c1.14,0.5,2.37,0.83,3.57,1.2c0.65,0.2,1.3,0.45,1.97,0.51c0.9,0.07,1.66,0.5,2.47,0.78
			c0.55,0.19,1.09,0.41,1.64,0.57c1.14,0.33,2.31,0.55,3.48,0.98c1.01,0.5,2.04,0.74,3.08,0.97c0.81,0.18,1.64,0.3,2.43,0.59
			c0.86,0.31,1.73,0.6,2.61,0.86c1.14,0.34,2.29,0.63,3.43,0.94c0.97,0.26,1.92,0.55,2.9,0.75c0.8,0.16,1.59,0.31,2.31,0.74
			c0.34,0.2,0.71,0.33,1.07,0.49c0.13,0.06,0.2,0.3,0.13,0.42c-0.23,0.39-0.48,0.77-0.68,1.17c-0.24,0.49-0.43,0.99-0.65,1.49
			c-0.07,0.15-0.12,0.37-0.23,0.42c-0.17,0.07-0.4,0.04-0.59-0.01c-0.56-0.17-1.1-0.36-1.65-0.55c-0.92-0.33-1.83-0.66-2.74-1
			c-1.17-0.43-2.37-0.82-3.51-1.33c-0.77-0.34-1.54-0.66-2.33-0.97c-1.27-0.5-2.54-0.99-3.82-1.46c-0.72-0.27-1.45-0.5-2.19-0.73
			c-0.68-0.21-1.37-0.4-2.05-0.61c-0.77-0.24-1.54-0.48-2.31-0.73c-1.13-0.36-2.26-0.7-3.38-1.07c-1.46-0.48-2.9-1-4.37-1.47
			c-1-0.32-2.05-0.51-3.04-0.87c-1.5-0.55-3.04-0.97-4.58-1.39c-0.51-0.14-1.01-0.35-1.53-0.4c-0.94-0.09-1.82-0.44-2.77-0.53
			c-0.7-0.07-1.38-0.33-2.1-0.34c-0.16,0-0.29-0.04-0.39-0.1c-0.99,0.24-1.79-0.08-2.65-0.35c-0.02,0-0.03,0-0.05-0.01
			c-0.42-0.05-0.85-0.07-1.27-0.15c-0.85-0.16-1.73-0.16-2.58-0.35c-0.31-0.07-0.64-0.02-0.97-0.01c-0.16,0.01-0.23-0.03-0.24-0.19
			c-0.87,0.68-2.03,0.23-3,0.25c-0.05,0.03-0.11,0.06-0.21,0.07c-0.17,0.02-0.34,0.05-0.51,0.08c-0.02,0.01-0.03,0.01-0.05,0.02
			c0.02-0.01,0.03-0.01,0.05-0.02c-0.67,0.1-1.34,0.23-2,0.45c-1,0.33-1.97,0.71-2.91,1.17c-0.06,0.03-0.11,0.04-0.15,0.06
			c-0.47,0.33-1.06,0.47-1.65,0.6c0.02,0.14-0.03,0.26-0.24,0.37c-0.7,0.37-1.4,0.74-2.05,1.19c-0.01,0.04-0.03,0.07-0.04,0.11
			c0.01-0.04,0.03-0.07,0.04-0.11c-0.11,0.08-0.22,0.15-0.33,0.23c-0.67,0.51-1.22,1.17-1.81,1.78c-0.3,0.31-0.58,0.65-0.86,0.98
			c-0.6,0.72-1.2,1.45-1.8,2.16c-0.29,0.35-0.59,0.69-0.9,1.02c-0.86,0.94-1.74,1.86-2.57,2.82c-0.55,0.64-1.05,1.34-1.55,2.03
			c-0.29,0.4-0.55,0.82-0.77,1.26c-0.48,0.97-0.98,1.91-1.6,2.79c-0.03,0.05-0.08,0.09-0.11,0.14c-0.05,0.09-0.1,0.26-0.12,0.26
			c-0.04-0.01-0.07-0.02-0.1-0.04c-3.84,5.33-4.79,11.55-4.98,17.95c0.02,0.44,0.06,0.89,0.11,1.33c0.03,0.32,0.11,0.64,0.21,0.94
			c0.16,0.47,0.34,0.93,0.51,1.4c0.22-0.6,0.48-1.17,0.89-1.58c0.19,1.13-0.01,2.14-0.32,3.1c0.13,0.34,0.29,0.67,0.49,0.98
			c0.39,0.59,0.68,1.26,1.05,1.87c0.42,0.7,0.86,1.39,1.33,2.06c0.47,0.65,1.04,1.22,1.48,1.88c0.75,1.14,1.68,2.13,2.5,3.21
			c0.68,0.88,1.42,1.71,2.09,2.6c0.92,1.21,1.9,2.36,2.96,3.44c0.77,0.78,1.52,1.59,2.28,2.39c0.03,0.03,0.06,0.05,0.08,0.09
			c0.82,1.22,1.79,2.34,2.81,3.38c1.66,1.69,3.21,3.51,5.19,4.87c0.96,0.65,1.86,1.38,2.93,1.86c0.73,0.33,1.47,0.56,2.23,0.44
			c0.22-0.04,0.4-0.01,0.57,0.04C77.75,168.33,77.37,159.58,82.52,153.79z M120.64,95.41c-0.25,1.31-0.83,2.46-1.51,3.56
			c-0.35,0.55-0.84,1.1-1.61,1.18c-0.95,0.37-1.87,0.25-2.77,0.22c-0.49-0.01-0.99-0.2-1.45-0.44c-0.27-0.13-0.56-0.21-0.82-0.35
			c-0.88-0.48-1.14-1.32-1.33-2.22c-0.18-0.81-0.1-1.63-0.1-2.44c0.01-0.82,0.34-1.55,0.81-2.2c0.69-0.96,1.53-1.76,2.66-2.18
			c0.21-0.08,0.42-0.19,0.64-0.21c0.67-0.06,1.34-0.14,2.01-0.12c1.45,0.04,3.12,1.3,3.4,2.71
			C120.72,93.71,120.81,94.55,120.64,95.41z"/>
		<g>
			<path class="st2" d="M69.99,106.99c-0.18-0.57-0.4-1.13-0.59-1.7c-0.13-0.39-0.26-0.79-0.34-1.19c-0.07-0.32-0.16-0.57-0.54-0.56
				c-0.27,0.01-0.56,0.35-0.57,0.71c-0.01,0.84-0.08,1.68,0.32,2.47c0.16,0.32,0.28,0.65,0.38,0.99c0.01,0.04,0.02,0.09,0.03,0.13
				c0.58-0.13,1.17-0.26,1.65-0.6C70.15,107.3,70.07,107.23,69.99,106.99z"/>
			<path class="st2" d="M53.75,124.54c-0.03-0.61-0.04-1.23-0.12-1.83c-0.15-1.02-0.21-2.05-0.53-3.05
				c-0.17-0.52-0.21-1.08-0.43-1.58c-0.09-0.21-0.13-0.44-0.25-0.62c-0.17-0.27-0.42-0.45-0.77-0.45c-0.3,0-0.61-0.03-0.91,0.01
				c-0.71,0.09-1.23-0.27-1.72-0.69c-0.4-0.34-0.76-0.73-1.12-1.11c-0.37-0.4-0.55-0.9-0.69-1.41c-0.21-0.76-0.4-1.53-0.59-2.3
				c-0.07-0.3-0.01-0.6-0.12-0.92c-0.14-0.42-0.12-0.89-0.14-1.34c-0.05-0.93-0.01-1.88-0.15-2.8c-0.1-0.7-0.06-1.39-0.1-2.08
				c-0.01-0.1-0.01-0.2,0-0.3c0.06-0.48,0.12-0.53,0.61-0.53c0.76,0.01,1.49,0.17,2.22,0.34c0.08,0.02,0.16,0.02,0.23,0.02
				c0.63,0,1.25,0.07,1.87,0.09c0.32,0.01,0.69-0.07,1.04-0.08c0.1,0,0.22-0.02,0.29,0.03c0.5,0.32,0.97,0.68,1.48,0.97
				c0.58,0.33,1.18,0.63,1.89,0.35c0.16-0.06,0.36-0.01,0.52-0.06c0.63-0.18,0.98-0.67,1.23-1.22c0.31-0.68,0.58-1.38,0.85-2.07
				c0.1-0.26,0.2-0.53,0.24-0.81c0.1-0.73,0.13-1.48,0.26-2.2c0.13-0.7,0.09-1.42,0.34-2.1c0.11-0.3,0.09-0.65,0.13-0.98
				c0.16-1.1,0.17-2.21,0.58-3.27c0.1-0.25-0.02-0.62-0.12-0.91c-0.06-0.18-0.13-0.27,0.04-0.45c0.54-0.55,0.79-1.18,0.47-1.95
				c-0.09-0.22-0.09-0.49-0.13-0.74c-0.03-0.19,0.05-0.31,0.22-0.37c0.6-0.21,1.21-0.4,1.81-0.61c0.99-0.34,1.97-0.71,2.96-1.04
				c0.52-0.17,1.06-0.26,1.59-0.42c1.42-0.43,2.82-0.95,4.26-1.27c0.92-0.21,1.82-0.51,2.76-0.68c1.14-0.21,2.25-0.64,3.39-0.87
				c0.97-0.19,1.88-0.58,2.87-0.71c0.82-0.11,1.62-0.37,2.41-0.6c0.9-0.26,1.79-0.56,2.69-0.83c0.07-0.02,0.15,0.01,0.23,0.02
				c-0.02,0.08-0.01,0.18-0.05,0.25c-0.44,0.75-0.8,1.52-1.03,2.36c-0.21,0.8-0.38,1.59-0.48,2.42c-0.14,1.18-0.01,2.36-0.11,3.53
				c-0.11,1.2-0.17,2.41-0.08,3.61c0.06,0.79,0.02,1.6,0.21,2.39c0.11,0.45,0.08,0.94,0.14,1.4c0.06,0.48,0.16,0.95,0.23,1.42
				c0.05,0.34,0.08,0.69,0.13,1.04c0.13,0.89,0.25,1.78,0.47,2.65c0.15,0.6,0.17,1.22,0.26,1.84c0.08,0.55,0.11,1.12,0.28,1.65
				c0.09,0.29-0.07,0.29-0.17,0.29c-0.31,0-0.63-0.05-0.94-0.08c0.87,0.27,1.67,0.59,2.65,0.35c-0.22-0.12-0.34-0.33-0.36-0.65
				c0-0.08,0.01-0.16,0-0.24c-0.04-0.41-0.06-0.82-0.12-1.22c-0.11-0.66-0.25-1.31-0.36-1.97c-0.06-0.36-0.05-0.74-0.15-1.09
				c-0.22-0.84-0.38-1.68-0.46-2.54c-0.03-0.35-0.07-0.7-0.12-1.04c-0.11-0.7-0.3-1.39-0.35-2.1c-0.09-1.34-0.1-2.68-0.13-4.01
				c-0.02-0.89,0.01-1.78-0.01-2.67c-0.01-0.39,0.03-0.79,0.05-1.17c0.03-0.4,0.05-0.82,0.07-1.23c0.02-0.56,0.14-1.11,0.24-1.66
				c0.09-0.53,0.35-0.99,0.48-1.5c0.22-0.85,0.72-1.51,1.28-2.14c0.06-0.07,0.16-0.09,0.24-0.14c0.58-0.34,1.16-0.67,1.87-0.36
				c0.97-0.11,1.85,0.31,2.76,0.52c1.14,0.25,2.21,0.74,3.36,0.97c0.86,0.17,1.71,0.34,2.58,0.33c0.22,0,0.49-0.08,0.66,0.02
				c0.48,0.27,0.92,0.02,1.36-0.03c0.38-0.05,0.69-0.49,0.68-0.89c-0.01-0.27-0.08-0.53-0.11-0.8c-0.14-1.19-0.76-2.1-1.7-2.77
				c-0.5-0.35-1.08-0.61-1.64-0.85c-0.84-0.36-1.7-0.71-2.57-0.97c-1.01-0.3-2.07-0.45-3.09-0.76c-0.91-0.28-1.87-0.43-2.7-0.95
				c-0.51-0.32-1.01-0.67-1.55-0.93c-0.86-0.41-1.75-0.76-2.62-1.13c-0.21-0.09-0.41-0.22-0.63-0.23c-0.54-0.04-1.05-0.18-1.55-0.38
				c-0.5-0.2-1.06-0.35-1.47-0.69c-0.84-0.69-1.8-1.02-2.83-1.25c-0.85-0.19-1.68-0.42-2.39-0.97c-0.55-0.43-1.12-0.83-1.31-1.59
				c-0.19-0.78-0.65-1.42-1.23-1.98c-0.39-0.37-0.82-0.54-1.35-0.56c-0.81-0.03-1.62,0.02-2.44-0.09c-0.66-0.09-1.28-0.25-1.85-0.53
				c-0.73-0.36-1.39-0.85-2.07-1.31c-0.25-0.17-0.43-0.42-0.53-0.74c-0.17-0.5-0.17-1.01-0.15-1.51c0.02-0.68-0.17-1.32-0.39-1.92
				c-0.31-0.82-1.11-1.07-1.91-1.15c-0.9-0.09-1.8-0.1-2.7-0.13c-0.53-0.02-1.05,0-1.58,0c-0.14,0-0.28,0.01-0.42-0.02
				c-0.56-0.14-1.68-0.12-2.28,0c-0.22,0.05-0.54,0.13-0.64-0.15c-0.11-0.3-0.16-0.65-0.14-0.97c0.03-0.46,0.2-0.9,0.22-1.36
				c0.03-0.94,0.05-1.89-0.23-2.81c-0.36-1.2-0.85-2.25-2.1-2.81c-1.05-0.47-2.1-0.53-3.07,0.02c-1.04,0.59-2.06,1.23-2.89,2.12
				c-0.37,0.39-0.52,0.83-0.57,1.35c-0.07,0.73,0.14,1.38,0.5,1.98c0.42,0.69,0.88,1.33,1.53,1.86c0.59,0.48,1.23,0.97,1.42,1.83
				c0.05,0.22,0.03,0.34-0.04,0.52c-0.27,0.7-0.91,1.06-1.47,1.46c-0.71,0.51-1.42,1.02-2.19,1.45c-0.65,0.36-1.24,0.84-1.82,1.32
				c-0.46,0.38-0.73,0.88-0.73,1.52c0.01,0.41,0.12,0.79,0.23,1.18c0.32,1.1,0.55,2.23,0.94,3.31c0.13,0.37,0.11,0.77-0.17,1.1
				c-0.32,0.37-0.72,0.7-0.97,1.12c-0.34,0.56-0.9,0.84-1.38,1.22c-0.16,0.13-0.43,0.16-0.65,0.17c-0.75,0.02-1.5,0-2.24,0.01
				c-0.59,0.01-1.16,0.08-1.59,0.56c-0.29,0.33-0.66,0.6-0.93,0.95c-0.54,0.69-0.88,1.46-0.88,2.37c0,0.42,0.26,0.71,0.4,1.05
				c0.12,0.28,0.13,0.48-0.1,0.67c-0.41,0.33-0.82,0.65-1.24,0.96c-0.63,0.45-1.11,1.03-1.48,1.71c-0.6,1.09-1.02,2.25-1.33,3.45
				c-0.13,0.51-0.25,1.03-0.36,1.55c-0.15,0.69-0.17,1.4-0.21,2.08c-0.07,1.19,0,2.4,0.11,3.59c0.08,0.93,0.32,1.85,0.47,2.77
				c0.1,0.65,0.1,1.32,0.26,1.96c0.29,1.15,0.52,2.31,0.94,3.43c0.4,1.05,0.65,2.16,1.03,3.22c0.47,1.32,0.72,2.7,1.03,4.06
				c0.26,1.12,0.55,2.24,0.85,3.35c0.33,1.22,0.81,2.38,1.13,3.6c0.45,1.72,1.02,3.41,1.56,5.12c0.25,0.79,0.49,1.58,0.79,2.34
				c0.49,1.25,1.07,2.47,1.56,3.72c0.5,1.29,0.99,2.58,1.41,3.9c0.53,1.68,1.2,3.3,1.95,4.89c0.59,1.25,1.28,2.46,1.94,3.69
				c0.62,1.16,1.41,2.22,2.18,3.29c0.29,0.4,0.51,0.83,0.5,1.37c-0.01,0.19,0,0.37,0.01,0.56c0.18-6.4,1.14-12.62,4.98-17.95
				C53.8,124.79,53.76,124.69,53.75,124.54z M56.54,102.13c-0.04,0.12-0.13,0.22-0.19,0.34c-0.09,0.19-0.17,0.38-0.25,0.57
				c-0.01-0.21-0.02-0.43-0.04-0.64c0.12-0.16,0.19-0.25,0.22-0.35c0.04-0.11,0.04-0.26,0.2-0.18
				C56.54,101.89,56.56,102.05,56.54,102.13z M97.19,81.89c0.06-0.02,0.07,0.01,0.07,0.05C97.24,81.92,97.21,81.9,97.19,81.89z
				 M98.46,81.95c-0.08,0.04-0.11,0.07-0.13,0.11c0-0.04,0.01-0.07,0.01-0.11c0.08-0.04,0.11-0.07,0.13-0.11
				C98.47,81.87,98.47,81.91,98.46,81.95z M48.97,50.39c-0.02-0.02-0.05-0.03-0.07-0.05C48.97,50.32,48.97,50.35,48.97,50.39z
				 M45.75,62.72c-0.06,0.02-0.07-0.01-0.07-0.05C45.7,62.68,45.72,62.7,45.75,62.72z M32.6,84.47c0.01-0.06,0.04-0.11,0.04-0.17
				c0.02-0.78,0.34-1.46,0.68-2.14c0.17-0.33,0.24-0.71,0.35-1.07c0.08-0.04,0.11-0.07,0.13-0.11c0,0.04-0.01,0.07-0.01,0.11
				c-0.01,0.19,0.1,0.17,0.17,0.05c0.05-0.07-0.03-0.22,0.02-0.29c0.09-0.14,0.08-0.32,0.34-0.39c0.24-0.06,0.42-0.34,0.62-0.53
				c0.19-0.18,0.36-0.38,0.56-0.53c0.32-0.24,0.68-0.42,0.99-0.67c0.14-0.11,0.43-0.23,0.16-0.51c-0.02-0.02,0.06-0.17,0.11-0.25
				c0.28-0.45,0.06-0.85-0.16-1.23c-0.42-0.7-0.39-0.81,0.06-1.47c0.22-0.32,0.55-0.57,0.61-1.02c0.03-0.2,0.33-0.36,0.61-0.47
				c0.99-0.39,2-0.15,3-0.21c0.49-0.03,0.94-0.1,1.38-0.34c0.22-0.13,0.45-0.15,0.47-0.53c0.01-0.24,0.32-0.46,0.5-0.69
				c0-0.01,0.05,0.03,0.08,0.04c0.24,0.1,0.53-0.02,0.46-0.16c-0.16-0.35,0.15-0.32,0.27-0.47c0.32-0.4,0.61-0.84,0.91-1.26
				c0.47-0.69,0.4-1.44,0.15-2.13c-0.22-0.61-0.32-1.24-0.46-1.86c-0.04-0.2-0.18-0.37-0.23-0.57c-0.1-0.4-0.19-0.81-0.23-1.23
				c-0.01-0.14,0.11-0.33,0.22-0.44c0.23-0.24,0.49-0.44,0.63-0.76c0.03-0.08,0.14-0.16,0.23-0.17c0.37-0.05,0.66-0.26,0.97-0.43
				c-0.06-0.06-0.12-0.06-0.18-0.06c0-0.04-0.01-0.11,0.01-0.12c0.29-0.13,0.58-0.25,0.87-0.39c0.22-0.11,0.53-0.12,0.6-0.46
				c0.01-0.06,0.19-0.45,0.33-0.02c0.07-0.06,0.2-0.12,0.19-0.18c-0.03-0.35,0.24-0.54,0.46-0.64c0.7-0.31,1.09-0.94,1.61-1.44
				c0.06-0.06,0.12-0.1,0.19-0.15c0.06-0.05,0.16-0.1,0.17-0.16c0.11-1.02-0.09-1.94-0.91-2.64c-0.42-0.36-0.82-0.74-1.23-1.11
				c-0.63-0.56-1.05-1.27-1.31-2.05c-0.12-0.34-0.12-0.72-0.18-1.08c-0.04-0.25,0.19-0.32,0.3-0.48c0.17-0.09,0.31-0.17,0.39-0.28
				c0.14-0.19,0.19,0.28,0.36,0.03c0.09-0.13,0.27-0.21,0.41-0.31c0.16-0.11,0.31-0.23,0.46-0.34c0.14-0.1,0.27-0.22,0.42-0.3
				c0.54-0.26,1.07-0.58,1.64-0.72c0.32-0.08,0.74,0.12,1.08,0.26c0.59,0.24,0.99,0.67,1.29,1.26c0.46,0.89,0.63,1.84,0.61,2.8
				c-0.01,1.06-0.22,2.12-0.18,3.19c0.01,0.18,0.04,0.4,0.14,0.54c0.11,0.16,0.25,0.46,0.55,0.18c0.05-0.05,0.2-0.01,0.3-0.01
				c0.14,0,0.28,0,0.42,0c1,0.01,1.99-0.05,2.98,0.12c0.95,0.16,1.92,0.15,2.88,0.11c0.66-0.03,1.29,0.08,1.89,0.28
				c0.25,0.08,0.53,0.38,0.61,0.64c0.15,0.45,0.29,0.91,0.29,1.4c-0.01,0.55,0.01,1.11,0.13,1.64c0.11,0.53,0.42,1.01,0.86,1.33
				c0.51,0.39,1.09,0.68,1.63,1.04c1.12,0.74,2.34,1.09,3.68,1.08c0.42,0,0.85,0.01,1.27,0c0.78-0.03,1.29,0.4,1.64,1.01
				c0.25,0.44,0.46,0.91,0.61,1.38c0.2,0.65,0.74,0.96,1.19,1.36c1.02,0.91,2.32,1.23,3.59,1.57c0.71,0.19,1.3,0.57,1.93,0.92
				c0.63,0.36,1.32,0.61,1.98,0.91c0.1,0.05,0.18,0.14,0.26,0.21c-0.12,0.05-0.29,0.17-0.36,0.13c-0.42-0.24-0.88-0.15-1.29-0.09
				c-1.32,0.19-2.64-0.01-3.95,0.12c-0.82,0.09-1.65,0.13-2.47,0.31c-0.54,0.12-1.1,0.17-1.65,0.28c-0.67,0.13-1.34,0.28-2.01,0.41
				c-0.73,0.15-1.46,0.28-2.18,0.44c-0.33,0.07-0.66,0.16-0.99,0.24c-0.56,0.13-1.11,0.24-1.67,0.37c-1.16,0.28-2.31,0.57-3.47,0.84
				c-0.52,0.12-1.06,0.16-1.59,0.26c-0.77,0.15-1.52,0.38-2.29,0.46c-0.84,0.09-1.64,0.33-2.46,0.52c-1.25,0.28-2.49,0.62-3.73,0.94
				c-1.02,0.26-2.03,0.57-3.03,0.89c-1.93,0.61-3.83,1.28-5.75,1.93c-1.49,0.5-2.99,0.96-4.41,1.65c-1.17,0.57-2.4,1.04-3.6,1.55
				c-0.89,0.38-1.79,0.74-2.69,1.12c-0.25,0.1-0.44-0.01-0.48-0.29L32.6,84.47z M32.27,88.68c0.03-0.06-0.13-0.21-0.2-0.33
				c-0.1-0.19-0.02-0.34,0.2-0.33c0.27,0.02,0.53,0.1,0.8,0.11c0.72,0.02,1.43-0.1,2.15-0.23c0.48-0.09,0.98-0.07,1.46-0.13
				c1.32-0.19,2.65-0.23,3.99-0.25c0.74-0.01,1.48-0.19,2.21-0.19c0.47,0,0.95-0.02,1.41-0.06c1.6-0.15,3.21-0.31,4.76-0.78
				c0.51-0.15,1.05-0.22,1.58-0.29c0.79-0.1,1.59-0.15,2.39-0.25c0.64-0.09,1.27-0.24,1.91-0.35c0.32-0.06,0.66-0.14,0.98-0.11
				c0.64,0.04,1.21-0.24,1.83-0.3c0.36-0.03,0.71-0.17,1.07-0.19c0.83-0.05,1.64-0.21,2.46-0.37c0.4-0.08,0.82-0.06,1.22-0.13
				c0.56-0.1,1.12-0.23,1.67-0.36c0.66-0.15,1.32-0.32,1.98-0.48c0.68-0.17,1.35-0.35,2.03-0.51c0.26-0.06,0.54-0.05,0.81-0.1
				c0.1-0.02,0.2-0.11,0.3-0.16c-0.06-0.07-0.12-0.15-0.19-0.19c-0.5-0.28-1.07-0.39-1.62-0.47c-0.39-0.06-0.82,0.04-1.22,0.11
				c-0.6,0.1-1.2,0.23-1.79,0.36c-0.65,0.14-1.3,0.28-1.95,0.42c-0.67,0.14-1.34,0.28-2,0.43c-0.66,0.16-1.31,0.34-1.97,0.51
				c-0.97,0.25-1.92,0.57-2.92,0.71c-0.94,0.14-1.85,0.41-2.78,0.59c-1.02,0.19-2.05,0.31-3.07,0.5c-1.54,0.29-3.08,0.22-4.63,0.24
				c-0.39,0-0.78,0.07-1.16,0.12c-0.37,0.04-0.73,0.02-1.11,0.09c-0.54,0.11-1.11,0.15-1.65,0.27c-0.63,0.14-1.27,0.24-1.91,0.37
				c-0.54,0.11-1.07,0.29-1.61,0.35c-1.07,0.13-2.15,0.31-3.23,0.25c-0.69-0.03-1.38-0.08-2.07-0.12c-0.22-0.01-0.42-0.36-0.28-0.56
				c0.13-0.21,0.1-0.38,0.1-0.59c0-0.21,0.1-0.37,0.39-0.44c0.63-0.15,1.25-0.39,1.86-0.62c1-0.37,1.99-0.77,2.98-1.15
				c0.72-0.28,1.46-0.49,2.14-0.83c0.98-0.49,2.03-0.78,3.05-1.13c1.49-0.5,3.02-0.9,4.51-1.42c1.17-0.41,2.34-0.8,3.54-1.11
				c1.02-0.26,2.02-0.63,3.04-0.84c1.08-0.22,2.13-0.54,3.21-0.74c0.81-0.15,1.6-0.39,2.41-0.48c0.79-0.08,1.54-0.33,2.33-0.4
				c0.43-0.04,0.86-0.16,1.29-0.25c0.7-0.15,1.41-0.3,2.11-0.47c0.62-0.15,1.24-0.32,1.87-0.47c0.57-0.14,1.15-0.25,1.73-0.37
				c0.45-0.09,0.9-0.18,1.34-0.27c0.5-0.11,1-0.23,1.5-0.33c0.67-0.14,1.35-0.27,2.02-0.39c0.66-0.12,1.32-0.26,1.99-0.33
				c0.89-0.08,1.8-0.01,2.67-0.15c0.84-0.14,1.67-0.04,2.5-0.1c0.29-0.02,0.59,0.07,0.86-0.11c0.07-0.05,0.21-0.03,0.3,0
				c0.66,0.23,1.35,0.01,2.01,0.13c0.82,0.15,1.68-0.05,2.46,0.35c0.38,0.2,0.76,0.41,1.14,0.62c0.1,0.05,0.19,0.11,0.29,0.17
				c0.65,0.45,1.32,0.63,2,0.8c0.87,0.22,1.7,0.57,2.57,0.83c0.49,0.15,1.02,0.18,1.5,0.33c0.71,0.22,1.4,0.53,2.11,0.76
				c0.76,0.24,1.49,0.53,2.13,0.99c0.75,0.54,1.29,1.23,1.33,2.2c0.01,0.23-0.02,0.35-0.31,0.35c-1.12-0.02-2.21-0.09-3.31-0.34
				c-1.18-0.27-2.3-0.72-3.47-1.01c-0.88-0.22-1.74-0.55-2.66-0.6c-0.27-0.01-0.53-0.1-0.8-0.11c-0.97-0.05-1.8,0.28-2.54,0.89
				c-0.41,0.34-0.92,0.43-1.41,0.56c-1.08,0.28-2.16,0.56-3.24,0.81c-0.81,0.19-1.64,0.35-2.45,0.52c-0.56,0.12-1.12,0.23-1.67,0.37
				c-0.77,0.19-1.53,0.4-2.3,0.6c-0.79,0.2-1.58,0.35-2.37,0.57c-0.54,0.16-1.11,0.26-1.66,0.4c-0.84,0.22-1.68,0.43-2.51,0.67
				c-1.77,0.51-3.53,1.04-5.28,1.6c-1.05,0.33-2.07,0.8-3.16,1.01c-0.23,0.04-0.46,0.13-0.68,0.1c-0.71-0.08-1.35,0.18-1.91,0.52
				c-0.82,0.49-1.69,0.81-2.59,1.08c-0.85,0.25-1.71,0.4-2.59,0.49c-0.88,0.1-1.75,0.3-2.58,0.64c-0.66,0.27-1.33,0.5-1.93,0.91
				c-0.57,0.38-1.26,0.47-1.92,0.62c-1.09,0.25-2.18,0.5-3.28,0.72c-0.4,0.08-0.82,0.07-1.22,0.13c-0.57,0.08-1.13,0.21-1.7,0.27
				c-0.8,0.09-1.59,0.38-2.42,0.1c-0.36-0.12-0.77-0.12-1.16-0.13c-1.13-0.04-2.16-0.39-3.11-0.98c-0.15-0.09-0.29-0.25-0.36-0.42
				c-0.22-0.52-0.45-1.03-0.5-1.61C32.24,89.38,32.08,89.04,32.27,88.68z M49.25,135.57c-0.48,1.15-0.32,2.36-0.35,3.55
				c0,0.11-0.04,0.22-0.06,0.33c-0.07-0.07-0.16-0.13-0.21-0.22c-0.28-0.41-0.56-0.81-0.81-1.24c-0.68-1.17-1.37-2.34-2.01-3.53
				c-0.43-0.81-0.79-1.65-1.14-2.5c-0.32-0.76-0.65-1.52-0.86-2.31c-0.17-0.64-0.55-1.19-0.62-1.88c-0.05-0.45-0.34-0.86-0.51-1.3
				c-0.52-1.36-1.01-2.73-1.64-4.05c-0.27-0.57-0.48-1.18-0.74-1.76c-0.39-0.87-0.68-1.78-0.97-2.69c-0.36-1.14-0.78-2.28-1.06-3.44
				c-0.35-1.49-0.9-2.91-1.34-4.36c-0.2-0.67-0.29-1.37-0.53-2.02c-0.33-0.87-0.43-1.77-0.6-2.66c-0.02-0.11-0.06-0.22-0.12-0.31
				c-0.21-0.28-0.23-0.6-0.24-0.93c-0.01-0.31-0.04-0.63-0.15-0.91c-0.44-1.14-0.74-2.32-1.18-3.45c-0.19-0.49-0.48-0.96-0.54-1.47
				c-0.1-0.8-0.54-1.5-0.57-2.33c-0.03-0.69-0.29-1.37-0.43-2.05c-0.06-0.3-0.11-0.61-0.14-0.91c-0.01-0.11-0.01-0.33,0.03-0.34
				c0.14-0.03,0.31-0.04,0.44,0.01c0.45,0.18,0.89,0.4,1.33,0.59c0.1,0.04,0.22,0.06,0.33,0.08c0.67,0.08,1.37,0.09,2.02,0.27
				c0.5,0.14,0.98,0.07,1.47,0.09c0.92,0.03,1.82-0.06,2.7-0.34c0.38-0.12,0.81-0.12,1.22-0.13c0.8-0.02,1.55-0.26,2.32-0.41
				c0.07-0.01,0.14-0.08,0.21-0.07c0.1,0.01,0.2,0.06,0.3,0.1c-0.05,0.08-0.09,0.18-0.16,0.23c-0.31,0.22-0.65,0.4-0.95,0.64
				c-0.69,0.55-1.54,0.7-2.34,0.95c-0.97,0.31-1.93,0.66-2.75,1.25c-0.51,0.36-0.89,0.9-1.33,1.36c-0.08,0.09-0.16,0.18-0.24,0.26
				c-0.12,0.26-0.15,0.47-0.25,0.65c-0.23,0.41-0.04,0.82-0.06,1.23c-0.01,0.13,0.06,0.26,0.06,0.4c0,0.64,0.18,1.27,0.22,1.9
				c0.04,0.65,0.2,1.26,0.28,1.9c0.08,0.6,0.22,1.2,0.34,1.8c0.01,0.08,0.01,0.16,0.02,0.24c0.04,0.89,0.07,1.79,0.13,2.68
				c0.06,0.9,0.13,1.8,0.25,2.69c0.08,0.6,0.19,1.21,0.36,1.79c0.38,1.27,0.78,2.55,1.23,3.8c0.24,0.66,0.64,1.27,0.94,1.91
				c0.66,1.42,1.36,2.83,1.83,4.34c0.13,0.41,0.34,0.79,0.52,1.18c0.5,1.07,1.01,2.13,1.5,3.2c0.36,0.8,0.62,1.65,1.03,2.42
				c0.52,0.99,1.11,1.95,1.81,2.83c0.66,0.84,1.29,1.69,1.93,2.54C49.21,135.26,49.3,135.46,49.25,135.57z"/>
			<path class="st2" d="M79,104.58c-0.02-0.5-0.12-0.99-0.24-1.48c-0.09-0.38-0.01-0.77-0.11-1.17c-0.14-0.53-0.11-1.09-0.14-1.64
				c-0.05-0.75-0.03-1.51-0.13-2.25c-0.19-1.34-0.25-2.68-0.23-4.03c0-0.63,0.02-1.13-0.01-1.64c-0.02-0.36-0.13-0.69-0.31-1.02
				c-0.24-0.44-0.6-0.53-0.99-0.54c-0.37-0.01-0.82,0.5-0.87,0.96c-0.1,0.87-0.3,1.74-0.26,2.63c0.02,0.38-0.11,0.78-0.1,1.16
				c0.02,0.95,0,1.92,0.14,2.86c0.11,0.74-0.03,1.49,0.12,2.19c0.16,0.74-0.07,1.5,0.22,2.21c0.01,0.02,0,0.04,0,0.06
				c0.04,0.75,0.08,1.5,0.12,2.25c0.01,0.15-0.01,0.23-0.09,0.29c0.97-0.02,2.13,0.43,3-0.25c0-0.01,0-0.02,0-0.03
				C79.1,104.96,79,104.77,79,104.58z"/>
			<path class="st2" d="M63.1,109c0.14,0.65,0.27,1.24,0.43,1.82c0.22,0.79-0.25,1.4-0.82,1.66c-0.33,0.15-0.63-0.05-0.9-0.22
				c-0.5-0.32-0.53-0.88-0.63-1.37c-0.25-1.13-0.4-2.28-0.72-3.4c-0.16-0.55-0.17-1.14-0.27-1.71c-0.1-0.56-0.24-1.11-0.34-1.67
				c-0.07-0.36-0.14-0.73-0.13-1.09c0-0.94-0.26-1.86-0.28-2.81c-0.01-0.54-0.1-1.1-0.09-1.65c0-0.21,0.06-0.42,0.12-0.61
				c0.21-0.67,0.86-0.81,1.39-0.38c0.3,0.24,0.29,0.58,0.42,0.87c0.11,0.26,0.13,0.57,0.13,0.85c0.01,0.88,0.2,1.72,0.36,2.58
				c0.12,0.64,0.14,1.31,0.26,1.96c0.17,0.95,0.4,1.89,0.6,2.84c0.13,0.61,0.24,1.23,0.37,1.85C63.01,108.66,63.06,108.8,63.1,109z"
				/>
			<path class="st2" d="M54.45,110.25c-0.32-0.6-0.63-1.16-0.88-1.74c-0.2-0.46,0.03-1.28,0.36-1.56c0.32-0.27,1.07-0.32,1.49-0.13
				c0.54,0.24,0.76,0.76,0.86,1.22c0.16,0.78,0.32,1.57,0.28,2.38c-0.03,0.59-0.53,0.93-1.1,0.71
				C55.02,110.96,54.7,110.68,54.45,110.25z"/>
			<path class="st2" d="M81.57,77.61c0.72-0.07,1.41-0.12,2.1-0.14c0.18-0.01,0.38,0.04,0.55,0.12c0.24,0.11,0.42,0.3,0.35,0.61
				c-0.06,0.28-0.11,0.51-0.48,0.61c-1.15,0.32-2.29,0.7-3.43,1.08c-0.83,0.28-1.65,0.6-2.49,0.87c-0.61,0.19-1.24,0.35-1.87,0.46
				c-0.56,0.09-1.14,0.12-1.7,0.12c-0.39,0-0.77-0.11-1.16-0.1c-0.31,0-0.62-0.02-0.93-0.01c-0.32,0.01-0.65,0-0.97,0
				c-0.06,0-0.11-0.02-0.17-0.03c0.04-0.06,0.07-0.14,0.12-0.17c0.52-0.3,1.03-0.63,1.57-0.88c0.57-0.27,1.19-0.42,1.76-0.73
				c0.65-0.35,1.37-0.49,2.1-0.63c0.57-0.1,1.12-0.31,1.68-0.47C79.57,78.03,80.54,77.78,81.57,77.61z"/>
			<path class="st2" d="M60.91,74.91c-0.9,0.02-1.71-0.15-2.52-0.36c-0.81-0.21-1.67-0.05-2.53,0.37c-0.73,0.35-1.52,0.53-2.31,0.72
				c-1.08,0.27-2.22,0.18-3.27,0.6c-1.13-0.08-2.09,0.53-3.15,0.73c-0.05,0.01-0.12,0.02-0.16,0.05c-0.52,0.46-1.2,0.63-1.8,0.93
				c-0.23,0.12-0.51,0.16-0.77,0.17c-0.54,0.03-1.01,0.31-1.57,0.33c-0.46,0.02-0.94,0.05-1.41,0.09c-0.53,0.04-0.93-0.23-1.31-0.5
				c-0.49-0.36-0.6-1.02-0.25-1.56c0.74-1.11,1.69-1.97,2.98-2.39c0.57-0.18,1.29-0.17,1.92,0c0.65,0.18,1.31,0.38,1.99,0.31
				c0.59-0.06,1.18-0.18,1.76-0.28c0.54-0.1,1.08-0.21,1.63-0.32c0.81-0.15,1.62-0.28,2.42-0.46c0.87-0.19,1.73-0.41,2.58-0.64
				c0.36-0.1,0.73-0.2,1.06-0.37c0.71-0.37,1.47-0.56,2.24-0.74c1.06-0.25,2.14-0.41,3.18-0.81c0.65-0.25,1.22-0.61,1.76-1.01
				c0.49-0.37,1.05-0.61,1.56-0.93c0.19-0.12,0.38-0.26,0.59-0.34c0.31-0.12,0.64-0.26,0.97-0.28c0.81-0.04,1.61,0.05,2.35,0.46
				c0.4,0.22,0.63,0.53,0.81,0.94c0.18,0.43,0.14,0.82-0.13,1.2c-0.05,0.07-0.13,0.17-0.12,0.25c0.03,0.93-0.72,1.27-1.28,1.77
				c-0.57,0.51-1.3,0.66-1.97,0.96c-0.55,0.24-1.09,0.5-1.68,0.62c-0.6,0.12-1.19,0.26-1.8,0.34
				C62.12,74.86,61.54,74.87,60.91,74.91z"/>
			<path class="st2" d="M49.43,67.46c0.76,0.22,1.49,0.38,2.12,0.82c0.63,0.44,1,1.08,1.16,1.8c0.06,0.28-0.14,0.61-0.22,0.92
				c-0.18,0.71-0.5,1.33-1.19,1.68c-0.15,0.08-0.3,0.15-0.46,0.2c-0.42,0.13-0.82,0.29-1.13,0.65c-0.31,0.36-0.77,0.49-1.21,0.56
				c-0.73,0.11-1.45,0.17-2.2,0.04c-0.62-0.11-1.24-0.22-1.84-0.4c-0.48-0.14-0.92-0.36-1.27-0.75c-0.25-0.27-0.56-0.44-0.89-0.61
				c-0.4-0.2-0.73-0.55-0.85-1.06c-0.17-0.69-0.09-1.38-0.1-2.07c0-0.23,0.11-0.49,0.25-0.67c0.44-0.56,1-0.96,1.7-1.15
				c0.42-0.11,0.82-0.26,1.25-0.35c0.51-0.11,1.02-0.19,1.53-0.25c1.01-0.12,1.96,0.07,2.88,0.51
				C49.08,67.41,49.25,67.41,49.43,67.46z"/>
			<path class="st2" d="M34.29,55.57c0.13-0.03,0.31-0.06,0.22,0.17c-0.04,0.08-0.17,0.13-0.2,0.22c-0.04,0.12-0.05,0.24-0.21,0.17
				c-0.02-0.01,0.03-0.18,0.07-0.27C34.2,55.77,34.25,55.69,34.29,55.57z"/>
			<path class="st2" d="M33.35,66.46c0.03-0.04,0.1-0.07,0.16-0.11c0.01,0.03,0.02,0.05,0.02,0.08
				C33.48,66.44,33.43,66.45,33.35,66.46z"/>
			<path class="st2" d="M32.11,74.14c0.04-0.01,0.07,0.02,0.11,0.04C32.18,74.17,32.15,74.17,32.11,74.14z"/>
		</g>
	</g>
</g>
</svg>
