<!-- Generator: Adobe Illustrator 24.2.1, SVG Export Plug-In  -->
<svg version="1.1" xmlns="http://www.w3.org/2000/svg" xmlns:xlink="http://www.w3.org/1999/xlink" x="0px" y="0px" width="216px"
	 height="240px" viewBox="0 0 216 240" style="overflow:visible;enable-background:new 0 0 216 240;" xml:space="preserve">
<style type="text/css">
	.st0{fill:none;}
	.st1{fill:#1A1A1A;}
</style>
<defs>
</defs>
<g>
	<g>
		<path class="st0" d="M216,240H0V0h216V240z M31.38,208.62h153.23V31.38H31.38V208.62z"/>
	</g>
	<g id="XMLID_1_">
		<g>
			<path class="st1" d="M76.48,132.39c-0.13-0.33-0.16-0.73-0.11-1.09c0.05-0.47,0.22-0.92,0.33-1.38c0.3-1.19,0.66-2.36,1.2-3.47
				c0.39-0.82,0.84-1.61,1.35-2.37c0.62-0.94,1.27-1.86,2.01-2.7c0.28-0.31,0.56-0.62,0.82-0.94c0.1-0.13,0.23-0.31,0.22-0.46
				c-0.02-0.27,0.15-0.4,0.31-0.55c0.74-0.72,1.47-1.45,2.29-2.1c0.74-0.6,1.49-1.19,2.28-1.74c0.75-0.53,1.52-1.04,2.28-1.55
				c1.35-0.9,2.71-1.79,4.07-2.68c0.72-0.47,1.45-0.91,2.17-1.37c0.76-0.48,1.52-0.96,2.28-1.43c0.71-0.44,1.43-0.86,2.15-1.29
				c0.92-0.55,1.83-1.09,2.73-1.65c0.99-0.61,1.98-1.22,2.95-1.84c0.86-0.55,1.71-1.1,2.53-1.7c1.1-0.8,2.26-1.53,3.25-2.48
				c0.41-0.39,0.87-0.72,1.33-1.05c0.6-0.42,1.19-0.83,1.47-1.54c0.39-0.97,0.75-1.97,1.1-2.95c0.09-0.25-0.04-0.42-0.27-0.48
				c-0.3-0.08-0.62-0.08-0.91-0.18c-1.07-0.37-2.2-0.48-3.31-0.69c-0.8-0.16-1.64-0.25-2.45-0.25c-1.53,0.02-3.06-0.07-4.59,0.08
				c-0.9,0.09-1.8,0.19-2.7,0.28c-0.33,0.03-0.66,0.07-0.98,0.14c-0.8,0.19-1.59,0.38-2.38,0.59c-0.64,0.16-1.28,0.32-1.9,0.54
				c-0.66,0.23-1.27,0.57-1.93,0.8c-1.43,0.51-2.77,1.25-4.17,2.04c-0.1,0.05-0.2,0.11-0.29,0.17c-1.24,0.71-2.41,1.51-3.52,2.41
				c-1.09,0.88-2.1,1.84-3.09,2.83c-1.06,1.05-2,2.19-2.87,3.39c-0.65,0.9-1.25,1.83-1.81,2.79c-0.46,0.78-0.83,1.6-1.22,2.42
				c-0.31,0.67-0.64,1.32-0.85,2.02c-0.43,1.34-0.86,2.66-1.15,4.05c-0.25,1.21-0.38,2.44-0.56,3.66c-0.11,0.74,0.02,1.5-0.12,2.27
				c-0.07,0.39,0.11,0.81,0.09,1.22c-0.02,1.04,0.09,2.06,0.25,3.07c0.06,0.41,0.04,0.83,0.14,1.22c0.25,1.05,0.53,2.1,0.85,3.13
				c0.1,0.32,0.2,0.63,0.31,0.95L76.48,132.39z M186.4,80.74c0.46,1.35,0.72,2.74,0.55,4.15c-0.14,1.14-0.27,2.27-0.67,3.38
				c-0.28,0.81-0.46,1.68-0.79,2.48c-0.29,0.71-0.63,1.41-1.03,2.07c-0.43,0.75-0.92,1.46-1.4,2.16c-0.24,0.36-0.51,0.7-0.79,1.02
				c-0.27,0.31-0.59,0.57-0.85,0.87c-1.03,1.16-2.27,2.06-3.55,2.92c-0.23,0.16-0.25,0.22-0.17,0.49c0.2,0.71,0.4,1.42,0.61,2.13
				c0.24,0.85,0.5,1.71,0.72,2.56c0.22,0.81,0.43,1.62,0.6,2.43c0.16,0.76,0.24,1.53,0.38,2.29c0.1,0.54,0.24,1.07,0.36,1.62
				c0.02,0.08,0,0.16,0.01,0.24c0.04,0.93,0.16,1.86,0.37,2.77c0.01,0.08,0,0.16,0,0.24c0.03,0.7,0,1.41,0.14,2.08
				c0.12,0.61,0.06,1.19,0.1,1.78c0.04,0.5,0.08,0.99,0.12,1.48c0.03,0.37-0.05,0.74,0,1.12c0.04,0.38,0.01,0.78,0,1.16
				c-0.04,1.35-0.06,2.69-0.13,4.04c-0.05,0.92-0.13,1.84-0.24,2.76c-0.12,0.9-0.3,1.8-0.38,2.71c-0.07,0.8-0.33,1.57-0.46,2.36
				c-0.25,1.51-0.64,2.99-0.96,4.48c-0.47,2.15-1.19,4.22-1.88,6.3c-0.43,1.27-0.94,2.53-1.49,3.77c-0.61,1.35-1.24,2.7-1.86,4.05
				c-0.53,1.15-1.16,2.24-1.76,3.35c-0.63,1.17-1.38,2.27-2.1,3.4c-0.66,1.05-1.33,2.09-2.03,3.12c-0.41,0.59-0.88,1.14-1.33,1.71
				c-0.76,0.96-1.51,1.93-2.28,2.89c-0.36,0.43-0.75,0.82-1.12,1.24c-0.6,0.68-1.19,1.39-1.82,2.05c-0.56,0.59-1.18,1.13-1.78,1.69
				c-0.47,0.45-0.9,0.92-1.37,1.35c-0.9,0.81-1.87,1.54-2.72,2.39c-0.74,0.73-1.61,1.27-2.38,1.96c-0.59,0.54-1.28,1-1.94,1.47
				c-0.77,0.55-1.54,1.08-2.32,1.6c-0.58,0.39-1.16,0.75-1.74,1.11c-0.8,0.49-1.59,0.96-2.39,1.44c-0.36,0.21-0.71,0.45-1.08,0.64
				c-1.74,0.9-3.45,1.86-5.24,2.66c-1.69,0.76-3.4,1.51-5.16,2.12c-1.03,0.36-2.04,0.76-3.08,1.09c-1.36,0.43-2.69,0.89-4.08,1.21
				c-0.99,0.23-1.96,0.56-2.96,0.81c-0.67,0.17-1.35,0.27-2.03,0.4c-1.05,0.21-2.11,0.41-3.16,0.61c-0.31,0.06-0.62,0.1-0.93,0.13
				c-0.42,0.05-0.86,0.07-1.29,0.12c-0.91,0.12-1.81,0.25-2.71,0.37c-0.02,0-0.05,0-0.07,0c-0.79,0.04-1.59,0.04-2.39,0.13
				c-1.62,0.18-3.26,0-4.88,0.15c-0.74,0.06-1.43-0.11-2.16-0.05c-0.75,0.06-1.5,0.06-2.25,0c-1.05-0.09-2.09-0.21-3.14-0.25
				c-0.74-0.02-1.48-0.13-2.21-0.24c-0.94-0.14-1.86-0.39-2.79-0.46c-1.07-0.08-2.1-0.36-3.15-0.54c-1.3-0.21-2.57-0.67-3.87-0.93
				c-1.64-0.34-3.21-0.89-4.8-1.37c-1.31-0.4-2.59-0.92-3.88-1.39c-0.91-0.34-1.83-0.67-2.73-1.04c-0.61-0.25-1.19-0.56-1.78-0.85
				c-1.17-0.57-2.35-1.1-3.5-1.71c-1.46-0.78-2.91-1.56-4.29-2.47c-1.01-0.68-2.07-1.27-3.1-1.93c-0.46-0.28-0.89-0.61-1.32-0.93
				c-0.69-0.51-1.37-1.03-2.05-1.55c-0.55-0.42-1.11-0.85-1.65-1.29c-0.96-0.78-1.91-1.58-2.86-2.37c-0.13-0.11-0.24-0.23-0.35-0.34
				c-0.85-0.82-1.74-1.61-2.57-2.46c-0.83-0.85-1.6-1.76-2.41-2.64c-0.13-0.15-0.3-0.28-0.42-0.43c-0.83-0.98-1.65-1.96-2.46-2.94
				c-0.65-0.79-1.28-1.58-1.9-2.39c-0.3-0.39-0.58-0.81-0.86-1.22c-0.61-0.93-1.22-1.85-1.81-2.79c-0.56-0.88-1.11-1.77-1.62-2.68
				c-0.76-1.36-1.53-2.7-2.19-4.09c-0.72-1.51-1.41-3.03-2-4.6c-0.45-1.2-0.94-2.38-1.35-3.59c-0.37-1.05-0.68-2.13-0.94-3.21
				c-0.24-1.04-0.49-2.08-0.73-3.11c-0.25-1.1-0.56-2.19-0.71-3.3c-0.1-0.77-0.37-1.48-0.5-2.23c-0.07-0.39-0.09-0.78-0.13-1.17
				c-0.04-0.47-0.08-0.95-0.12-1.42c-0.08-0.82-0.12-1.64-0.28-2.46c-0.03-0.2,0.06-0.33,0.05-0.51c-0.07-1.04-0.05-2.09-0.16-3.12
				c-0.05-0.55-0.08-1.06-0.01-1.61c0.06-0.43-0.16-0.91-0.08-1.37c0.17-0.94,0.06-1.87,0.12-2.81c0.05-0.98,0.13-1.97,0.24-2.95
				c0.09-0.79,0.25-1.57,0.36-2.35c0.09-0.59,0.14-1.19,0.25-1.78c0.18-1.02,0.44-2.03,0.6-3.05c0.27-1.77,0.85-3.47,1.26-5.21
				c0.27-1.13,0.69-2.23,1.11-3.32c0.53-1.34,0.95-2.73,1.58-4.04c0.39-0.81,0.67-1.68,1.07-2.48c0.82-1.6,1.69-3.17,2.52-4.76
				c0.63-1.21,1.36-2.37,2.11-3.52c0.09-0.11,0.14-0.24,0.23-0.39c0.94-1.37,1.84-2.72,2.87-3.98c0.81-0.99,1.55-2.04,2.34-3.05
				c0.29-0.38,0.62-0.72,0.95-1.07c0.74-0.79,1.49-1.57,2.23-2.37c0.46-0.47,0.86-0.99,1.34-1.44c0.85-0.81,1.74-1.59,2.61-2.38
				c0.34-0.31,0.68-0.61,1.03-0.9c0.67-0.56,1.34-1.09,2-1.64c0.47-0.39,0.93-0.8,1.41-1.16c1.05-0.79,2.1-1.57,3.18-2.33
				c0.93-0.65,1.87-1.26,2.83-1.85c0.77-0.49,1.57-0.93,2.36-1.39c1.73-1.03,3.54-1.93,5.36-2.79c1.38-0.65,2.78-1.25,4.19-1.82
				c1.41-0.57,2.86-1.06,4.26-1.63c0.88-0.34,1.83-0.49,2.72-0.8c0.56-0.19,1.13-0.31,1.69-0.48c0.97-0.29,1.95-0.51,2.93-0.74
				c0.74-0.17,1.48-0.35,2.23-0.5c0.38-0.07,0.75-0.15,1.13-0.22c0.49-0.08,0.99-0.15,1.48-0.24c0.46-0.08,0.91-0.16,1.36-0.24
				c0.8-0.15,1.62-0.18,2.41-0.36c0.38-0.09,0.77-0.1,1.16-0.13c0.72-0.05,1.46,0.01,2.15-0.15c0.82-0.17,1.66,0.06,2.46-0.21
				c0.11-0.04,0.24-0.01,0.36-0.01c0.98,0,1.96-0.01,2.93,0c1.84,0.03,3.67,0.06,5.5,0.13c0.9,0.04,1.81,0.12,2.7,0.25
				c0.74,0.11,1.49,0.13,2.22,0.25c0.64,0.11,1.29,0.17,1.92,0.34c0.56,0.14,1.16,0.16,1.73,0.26c0.89,0.15,1.77,0.32,2.66,0.5
				c0.67,0.14,1.33,0.31,1.99,0.47c0.53,0.14,1.06,0.28,1.59,0.43c1.27,0.34,2.53,0.67,3.78,1.04c0.63,0.19,1.22,0.48,1.85,0.67
				c0.74,0.24,1.47,0.47,2.18,0.79c0.58,0.25,1.18,0.49,1.77,0.73c0.38,0.15,0.77,0.3,1.16,0.43c0.23,0.08,0.44,0.11,0.67-0.05
				c0.9-0.61,1.92-0.95,2.96-1.22c0.61-0.17,1.23-0.22,1.85-0.02c0.17,0.06,0.35,0.02,0.49-0.16c0.56-0.67,1.36-0.99,2.07-1.46
				c0.52-0.36,1.04-0.72,1.58-1.05c1.02-0.61,2.07-1.16,3.23-1.47c0.26-0.06,0.5-0.19,0.76-0.23c0.22-0.03,0.47-0.08,0.66,0.16
				c0.21,0.26,0.18,0.55,0.07,0.78c-0.18,0.38-0.39,0.77-0.69,1.06c-1.09,1.06-1.92,2.31-2.8,3.54c-0.09,0.13-0.24,0.22-0.33,0.35
				c-0.11,0.15-0.21,0.32-0.26,0.5c-0.07,0.28,0.25,0.24,0.37,0.36c0.78,0.78,1.28,1.72,1.69,2.72c0.3,0.75,0.63,1.49,0.93,2.24
				c0.16,0.42,0.27,0.87,0.42,1.29c0.08,0.23,0.19,0.4,0.42,0.56c0.86,0.57,1.67,1.2,2.47,1.84c0.94,0.74,1.86,1.52,2.78,2.28
				c0.22,0.18,0.32,0.16,0.46-0.12c0.17-0.35,0.3-0.72,0.48-1.08c0.45-0.9,0.99-1.75,1.58-2.57c0.52-0.72,1.02-1.45,1.69-2.04
				c0.67-0.57,1.36-1.11,2.07-1.63c0.49-0.36,1.01-0.7,1.54-0.99c0.42-0.24,0.87-0.47,1.34-0.58c0.3-0.06,0.31-0.19,0.27-0.38
				c-0.11-0.52-0.23-1.04-0.38-1.55c-0.26-0.85-0.56-1.68-0.83-2.53c-0.06-0.18-0.12-0.37-0.12-0.56c-0.01-0.42,0.16-0.58,0.59-0.62
				c0.65-0.07,1.19,0.25,1.72,0.56c1.28,0.75,2.27,1.87,3.29,2.93c0.44,0.45,0.81,0.96,1.21,1.45c0.05,0.06,0.11,0.12,0.13,0.18
				c0.14,0.41,0.45,0.53,0.84,0.68c0.84,0.32,1.63,0.77,2.45,1.15c1.04,0.47,2.02,1.07,2.92,1.77c0.81,0.64,1.38,1.5,1.98,2.35
				c0.45,0.65,0.95,1.28,1.44,1.9c0.82,1.03,1.51,2.11,1.74,3.44c0.06,0.35,0.08,0.69,0.11,1.04c0.02,0.27,0.1,0.54,0.11,0.81
				c0.05,0.65-0.14,1.26-0.31,1.88c-0.07,0.25-0.1,0.45,0.17,0.59c1.02,0.54,1.52,1.52,2.1,2.43
				C185.61,78.22,185.98,79.49,186.4,80.74z M185.64,84.93c0.16-0.66,0.09-1.3,0.01-1.97c-0.1-0.87-0.37-1.68-0.62-2.62
				c-0.05-0.12-0.08-0.25-0.14-0.37c-0.44-0.9-0.85-1.8-1.35-2.67c-0.26-0.47-0.65-0.87-1.03-1.28c-0.15-0.17-0.33-0.29-0.64-0.15
				c-0.33,0.16-0.7-0.07-0.89-0.42c-0.2-0.38-0.46-0.66-0.94-0.66c-0.22,0-0.49-0.02-0.67-0.13c-0.23-0.16-0.26-0.01-0.32,0.12
				c-0.13,0.35-0.23,0.72-0.38,1.06c-0.28,0.61-0.78,0.9-1.44,0.9c-0.69,0-1.34,0.18-2,0.35c-0.51,0.14-1.2-0.02-1.39-0.38
				c-0.1-0.17-0.34-0.4-0.05-0.62c-0.08-0.55,0.35-1.1,0.02-1.67c-0.06-0.11,0-0.33,0.06-0.47c0.1-0.2,0.05-0.27-0.14-0.24
				c-0.17,0.02-0.34,0.06-0.5,0.12c-0.74,0.24-1.45,0.54-2.2,0.71s-1.43,0.43-1.99,0.94c-0.42,0.38-0.81,0.79-1.2,1.2
				c-0.74,0.75-1.31,1.62-1.82,2.54c-0.72,1.34-1.14,2.76-1.13,4.29c0,0.11-0.05,0.22-0.07,0.33c-0.07,0.45-0.33,0.87-0.06,1.35
				c0.12,0.21,0.2,0.19,0.39,0.1c0.55-0.25,1.13-0.46,1.73-0.36c0.98,0.17,1.8,0.77,2.71,1.12c0.47,0.18,0.89,0.53,1.3,0.83
				c0.76,0.54,1.44,1.16,1.93,1.97c0.31,0.52,0.6,1.05,0.92,1.57c0.77,1.24,1.3,2.56,1.27,4.04c-0.02,0.88,0.03,1.77-0.14,2.63
				c-0.22,1.1-0.62,2.17-0.95,3.25c-0.02,0.08-0.17,0.1-0.03,0.23c0.12,0.11,0.15,0.02,0.21-0.04c0.2-0.16,0.38-0.35,0.6-0.48
				c0.5-0.3,1-0.6,1.53-0.85c1.34-0.65,2.55-1.47,3.58-2.55c0.61-0.62,1.25-1.22,1.84-1.85c0.3-0.32,0.56-0.69,0.8-1.07
				c0.28-0.44,0.51-0.92,0.8-1.37c0.54-0.85,1.03-1.72,1.34-2.68c0.37-1.15,0.72-2.31,0.94-3.51
				C185.61,85.74,185.54,85.33,185.64,84.93z M181.49,73.61c0.12-0.62,0.26-1.23,0.13-1.86c-0.05-0.23-0.12-0.46-0.12-0.68
				c0.02-0.82-0.29-1.55-0.69-2.22c-0.37-0.61-0.88-1.14-1.31-1.71c-0.44-0.57-0.91-1.12-1.29-1.73c-0.63-1-1.45-1.8-2.43-2.42
				c-0.91-0.56-1.89-1.03-2.83-1.55c-0.25-0.14-0.47-0.14-0.67,0.09c-0.11,0.12-0.21,0.24-0.3,0.37c-0.35,0.51-0.88,0.84-1.42,1.05
				c-0.38,0.15-0.79,0.28-1.19,0.37c-0.4,0.1-0.82,0.14-1.22,0.14c-0.47-0.01-0.99-0.16-1.23-0.52c-0.33-0.51-0.65-1.07-0.68-1.73
				c-0.01-0.41-0.11-0.49-0.5-0.34c-0.71,0.26-1.41,0.51-2.03,1c-0.76,0.61-1.57,1.15-2.28,1.84c-0.59,0.56-1.02,1.23-1.52,1.86
				c-0.71,0.89-1.22,1.89-1.7,2.91c-0.44,0.93-0.84,1.89-1.05,2.92c-0.18,0.89-0.38,1.8-0.54,2.69c-0.11,0.59-0.18,1.19-0.27,1.78
				c-0.11,0.73-0.25,1.45-0.34,2.18c-0.07,0.61-0.07,1.22-0.13,1.83c-0.03,0.3-0.2,0.53-0.51,0.64c-0.27,0.09-0.52-0.04-0.6-0.21
				c-0.14-0.25-0.28-0.63-0.2-0.87c0.22-0.6-0.02-1.21,0.2-1.81c0.11-0.28-0.06-0.36-0.39-0.27c-0.7,0.18-1.4,0.34-2.11,0.51
				c-0.71,0.16-1.41,0.34-2.12,0.48c-0.78,0.14-1.57,0.24-2.35,0.37c-0.28,0.05-0.55,0.13-0.83,0.19c-0.45,0.1-0.89,0.21-1.34,0.29
				c-0.33,0.06-0.66,0.07-0.99,0.12c-1.01,0.16-2.03,0.27-3.03,0.5c-1.2,0.28-2.39,0.63-3.61,0.86c-0.17,0.03-0.34,0.13-0.5,0.09
				c-0.22-0.05-0.51-0.09-0.52-0.43c-0.01-0.28,0.15-0.43,0.51-0.53c0.49-0.13,0.97-0.29,1.46-0.44c0.73-0.22,1.44-0.45,2.17-0.64
				c0.68-0.19,1.37-0.34,2.06-0.49c0.43-0.1,0.86-0.23,1.29-0.23c0.68,0,1.05-0.31,1.3-0.89c0.19-0.46,0.38-0.91,0.61-1.33
				c0.33-0.64,0.71-1.24,1.02-1.9c0.43-0.94,0.89-1.87,1.17-2.87c0.26-0.93,0.49-1.88,0.64-2.85c0.14-0.94,0.23-1.88,0.2-2.83
				c0-0.33-0.1-0.66-0.11-0.99c0-0.35-0.03-0.69-0.2-1.02c-0.12-0.25-0.18-0.53-0.3-0.79c-0.38-0.83-0.79-1.66-1.17-2.5
				c-0.23-0.55-0.56-1.03-0.89-1.52c-0.06-0.09-0.06-0.25-0.12-0.28c-0.17-0.06-0.29,0.05-0.37,0.21c-0.41,0.74-1.19,1.04-1.84,1.48
				c-0.13,0.09-0.34,0.15-0.48,0.12c-0.57-0.15-1.2-0.17-1.61-0.69c-0.14-0.18-0.28-0.37-0.43-0.56c-0.51-0.63-0.55-1.55-0.1-2.27
				c0.04-0.06,0.04-0.14,0.06-0.21c-0.08-0.01-0.16-0.05-0.23-0.04c-0.33,0.06-0.67,0.15-1.01,0.21c-0.65,0.1-1.22,0.38-1.79,0.69
				c-0.47,0.26-0.91,0.55-1.36,0.84c-0.51,0.33-0.94,0.73-1.36,1.14c-0.53,0.53-1.13,1.01-1.57,1.6c-0.82,1.09-1.42,2.31-1.84,3.63
				c-0.26,0.85-0.45,1.72-0.74,2.56c-0.36,1.05-0.68,2.09-0.85,3.19c-0.16,1.02-0.52,2.02-0.82,3.01c-0.43,1.39-0.83,2.78-1.46,4.09
				c-0.28,0.57-0.52,1.16-0.99,1.76c-0.65,0.7-1.47,1.1-2.4,1.29c-0.3,0.07-0.6,0.23-0.87,0.4c-0.75,0.44-1.48,0.95-2.24,1.37
				c-0.99,0.53-1.72,1.32-2.29,2.26c-0.39,0.64-0.73,1.31-1.02,2.01c-0.4,0.98-0.77,1.97-1.04,2.98c-0.35,1.36-0.73,2.72-1.03,4.09
				c-0.22,1.07-0.59,2.11-0.96,3.14c-0.1,0.28-0.13,0.49,0.02,0.69c0.14,0.2,0.09,0.36-0.01,0.52c-0.24,0.39-0.5,0.76-0.74,1.15
				c-0.37,0.61-0.67,1.24-0.72,1.96c-0.01,0.28,0.1,0.37,0.38,0.41c0.56,0.07,1.02-0.19,1.5-0.38c0.44-0.19,0.89-0.27,1.36-0.22
				c0.11,0.01,0.27,0.17,0.29,0.28c0.05,0.31-0.04,0.61-0.24,0.88c-0.21,0.28-0.43,0.54-0.6,0.84c-0.56,1-0.64,2.11-0.61,3.22
				c0.02,0.39,0.36,0.62,0.7,0.45c0.46-0.22,0.91-0.47,1.35-0.72c0.45-0.25,0.8-0.65,1.34-0.74c0.26-0.04,0.63,0.07,0.63,0.29
				c0,0.33,0,0.68-0.09,1c-0.16,0.58-0.42,1.12-0.58,1.7c-0.11,0.39-0.15,0.81-0.17,1.21c-0.01,0.23,0.08,0.45,0.11,0.68
				c0.07,0.5,0.22,1.04,0.68,1.23c0.64,0.27,1.31,0.51,2.04,0.52c0.51,0.01,1-0.1,1.49-0.23c0.3-0.08,1.01,0.31,1.03,0.61
				c0.03,0.42,0.12,0.84-0.09,1.26c-0.13,0.25-0.19,0.53-0.25,0.8c-0.02,0.1,0.07,0.21,0.11,0.31c0.08-0.03,0.16-0.06,0.22-0.1
				c0.31-0.23,0.61-0.47,0.94-0.69c0.82-0.55,1.59-1.17,2.5-1.6c0.55-0.25,1.05-0.61,1.58-0.9c0.99-0.53,2.04-0.96,3.12-1.3
				c0.45-0.14,0.91-0.18,1.36-0.27c0.68-0.15,1.36-0.28,2.06-0.32c0.99-0.05,1.97,0.1,2.95,0.23c1.09,0.14,2.15,0.38,3.22,0.6
				c1.74,0.36,3.37,1.03,5.09,1.42c1.33,0.3,2.64,0.69,3.96,1.04c0.63,0.16,1.25,0.32,1.92,0.39c0.66,0.07,1.3,0.23,1.97,0.22
				c0.41,0,0.82,0,1.22,0c0.14,0,0.28,0,0.42-0.02c0.71-0.11,1.41-0.29,2.12-0.32c0.76-0.03,1.49-0.14,2.23-0.38
				c0.93-0.29,1.88-0.56,2.75-0.99c0.56-0.27,1.13-0.58,1.61-0.97c0.78-0.65,1.53-1.35,2.24-2.09c0.51-0.53,0.92-1.17,1.39-1.73
				c0.59-0.72,1.15-1.45,1.59-2.27c0.36-0.67,0.61-1.37,0.76-2.13c0.12-0.6,0.5-1.13,0.69-1.72c0.25-0.71,0.4-1.46,0.63-2.18
				c0.31-1.01,0.52-2.03,0.48-3.09c-0.02-0.39-0.11-0.78-0.11-1.17c-0.01-0.38-0.12-0.72-0.22-1.08c-0.28-1.07-0.89-2-1.42-2.94
				c-0.4-0.73-1.08-1.36-1.75-1.89c-0.87-0.7-1.89-1.17-2.92-1.62c-0.27-0.12-0.55-0.3-0.83-0.33c-0.38-0.02-0.78,0.04-1.14,0.15
				c-0.26,0.08-0.17,0.39-0.14,0.59c0.1,0.82-0.47,1.15-1.13,1.41c-0.6,0.23-1.26,0.3-1.86,0.51c-0.6,0.21-1.17,0.31-1.81,0.13
				c-0.95-0.26-1.5-1-1.38-1.96c0.01-0.07-0.13-0.24-0.18-0.24c-0.42,0.1-0.84,0.2-1.25,0.35c-0.38,0.14-0.73,0.32-1.08,0.49
				c-1.08,0.57-2.02,1.31-2.87,2.19c-0.72,0.76-1.27,1.61-1.75,2.52c-0.54,1.01-1.07,2.03-1.6,3.06c-0.38,0.74-0.66,1.52-0.59,2.38
				c0.01,0.15,0.03,0.33,0,0.48c-0.08,0.38-0.51,0.55-0.81,0.32c-0.25-0.19-0.4-0.45-0.41-0.8c-0.05-1.02,0.23-1.95,0.68-2.83
				c0.48-0.97,0.98-1.92,1.51-2.85c0.44-0.78,0.82-1.59,1.4-2.29c0.82-0.99,1.76-1.81,2.79-2.55c0.65-0.48,1.37-0.8,2.1-1.12
				c0.59-0.26,1.16-0.49,1.82-0.47c0.51,0.02,0.79-0.27,0.8-0.78c0.01-0.73,0-1.46,0-2.19c0-0.08,0.03-0.19-0.01-0.25
				c-0.26-0.43-0.04-0.91-0.11-1.35c0-0.06,0.05-0.15,0.09-0.21c0.43-0.57,0.91-0.62,1.43-0.1c0.73,0.76,1.56,1.44,2.12,2.36
				c0.05,0.08,0.16,0.11,0.26,0.16c0.04-0.1,0.12-0.21,0.12-0.31c0.02-0.32,0.01-0.65,0.01-0.98c0-0.12-0.03-0.25,0.01-0.36
				c0.23-0.96,0.62-1.87,1.08-2.72c0.81-1.48,1.84-2.81,3.08-3.98c0.42-0.39,0.9-0.68,1.37-0.97c0.3-0.18,0.65-0.29,1-0.38
				c0.93-0.26,1.87-0.47,2.8-0.74c0.61-0.19,0.62-0.28,0.45-0.88c-0.27-0.93-0.5-1.87-0.77-2.8c-0.17-0.61,0.25-1.11,0.85-1.06
				c0.29,0.02,0.62,0.07,0.88,0.2c0.79,0.4,1.63,0.69,2.34,1.3c1.01,0.88,1.73,1.83,2.04,3.13c0.09,0.39,0.24,0.7,0.79,0.78
				c0.44,0.05,0.93,0.12,1.34,0.42C181.14,73.96,181.45,73.81,181.49,73.61z M180.03,120.44c0.04-0.61-0.09-1.22-0.07-1.84
				c0.03-0.57-0.14-1.16-0.18-1.74c-0.05-0.61-0.02-1.22-0.11-1.84c-0.09-0.61-0.19-1.23-0.24-1.85c-0.08-0.95-0.26-1.89-0.39-2.83
				c-0.06-0.44-0.15-0.87-0.25-1.3c-0.07-0.37-0.16-0.75-0.24-1.12c-0.17-0.86-0.29-1.74-0.52-2.59c-0.37-1.43-0.84-2.82-1.2-4.26
				c-0.15-0.59-0.26-0.62-0.81-0.3c-0.05,0.03-0.11,0.04-0.16,0.06c-0.47,0.26-0.97,0.45-1.37,0.84c-0.17,0.18-0.46,0.42-0.85,0.22
				c-0.22-0.12-0.4,0.02-0.48,0.34c-0.14,0.58-0.35,1.16-0.6,1.7c-0.55,1.24-1.25,2.38-2.18,3.37c-0.26,0.28-0.46,0.62-0.7,0.93
				c-0.36,0.46-0.73,0.92-1.12,1.36c-0.83,0.96-1.87,1.68-2.91,2.41c-0.17,0.12-0.34,0.2-0.21,0.52c0.14,0.33,0.13,0.72,0.17,1.09
				c0.05,0.36,0.04,0.75,0.13,1.1c0.25,0.87,0.28,1.77,0.36,2.66c0.01,0.16-0.04,0.33,0,0.49c0.2,0.69,0.22,1.4,0.22,2.09
				c0.02,2.18,0.11,4.36-0.09,6.54c-0.05,0.42,0.08,0.87-0.03,1.28c-0.13,0.51-0.11,1.03-0.21,1.55c-0.09,0.44-0.02,0.92-0.15,1.34
				c-0.11,0.32-0.05,0.62-0.12,0.93c-0.16,0.77-0.32,1.54-0.48,2.3c-0.13,0.66-0.23,1.33-0.39,1.97c-0.22,0.89-0.45,1.77-0.71,2.64
				c-0.26,0.86-0.54,1.72-0.84,2.58c-0.4,1.11-0.8,2.23-1.23,3.33c-0.4,0.99-0.82,1.98-1.28,2.94c-0.35,0.75-0.77,1.47-1.16,2.2
				c-0.33,0.64-0.62,1.3-0.99,1.91c-0.66,1.11-1.36,2.2-2.07,3.29c-0.53,0.82-1.09,1.63-1.68,2.41c-0.69,0.9-1.42,1.77-2.15,2.64
				c-0.76,0.91-1.51,1.85-2.34,2.69c-1.31,1.34-2.67,2.64-4.04,3.93c-0.65,0.61-1.32,1.2-2.01,1.76c-0.63,0.51-1.3,0.98-1.95,1.47
				c-0.66,0.5-1.32,1.02-2,1.48c-0.81,0.54-1.68,0.99-2.47,1.54c-1.53,1.04-3.17,1.87-4.79,2.73c-0.7,0.37-1.43,0.68-2.14,1.01
				c-0.77,0.36-1.52,0.75-2.31,1.07c-0.92,0.37-1.89,0.62-2.8,1.02c-1.36,0.59-2.77,0.99-4.18,1.39c-1.61,0.45-3.23,0.9-4.9,1.14
				c-1,0.15-1.98,0.43-2.98,0.59c-0.99,0.16-1.97,0.26-2.96,0.37c-0.78,0.1-1.56,0.19-2.34,0.24c-0.58,0.04-1.17,0-1.76,0.01
				c-0.55,0.02-1.08,0.13-1.62,0.11c-1.23-0.02-2.45,0.02-3.67-0.08c-1.34-0.11-2.7-0.08-4.04-0.27c-0.9-0.12-1.8-0.16-2.71-0.26
				c-0.3-0.03-0.61-0.07-0.91-0.14c-0.54-0.11-1.08-0.24-1.62-0.34c-0.55-0.1-1.12-0.14-1.66-0.27c-0.78-0.17-1.54-0.39-2.32-0.59
				c-1.15-0.3-2.32-0.56-3.46-0.92c-1.64-0.51-3.23-1.11-4.83-1.74c-1.95-0.76-3.86-1.59-5.7-2.58c-1.31-0.69-2.61-1.39-3.85-2.19
				c-1.34-0.88-2.73-1.69-4.03-2.63c-1.45-1.05-2.87-2.18-4.22-3.36c-1.26-1.11-2.55-2.21-3.66-3.5c-0.74-0.9-1.6-1.72-2.48-2.65
				c-0.06-0.1-0.11-0.21-0.19-0.31c-0.37-0.42-0.77-0.81-1.12-1.25c-0.48-0.6-0.93-1.23-1.38-1.86c-0.5-0.69-0.99-1.37-1.46-2.08
				c-0.45-0.67-0.85-1.36-1.3-2.02c-0.61-0.9-1.17-1.83-1.67-2.79c-0.71-1.33-1.37-2.68-1.99-4.05c-0.56-1.27-1.05-2.57-1.55-3.87
				c-0.29-0.75-0.56-1.52-0.79-2.29c-0.26-0.85-0.47-1.72-0.67-2.59c-0.24-1-0.46-2-0.68-3.01c-0.11-0.52-0.11-1.08-0.29-1.58
				c-0.35-0.98-0.41-2-0.54-3c-0.1-0.74-0.17-1.48-0.25-2.22c-0.1-0.81-0.1-1.63-0.14-2.44c-0.01-0.37,0-0.74,0-1.1
				c0.04-2.02,0.08-4.03,0.13-6.05c0-0.08-0.02-0.17,0-0.24c0.26-0.85,0.23-1.74,0.36-2.6c0.06-0.38,0.06-0.78,0.13-1.16
				c0.19-0.99,0.4-1.99,0.61-2.98c0.15-0.71,0.31-1.42,0.49-2.12c0.27-1.04,0.52-2.1,0.86-3.12c0.31-0.96,0.78-1.88,1.07-2.85
				c0.53-1.76,1.37-3.38,2.1-5.05c0.36-0.84,0.85-1.64,1.29-2.45c0.38-0.71,0.74-1.44,1.17-2.13c0.67-1.09,1.39-2.16,2.11-3.22
				c0.47-0.7,0.95-1.4,1.47-2.07c0.72-0.93,1.47-1.84,2.23-2.73c0.76-0.88,1.52-1.75,2.33-2.57c1.08-1.09,2.2-2.13,3.31-3.19
				c0.03-0.03,0.05-0.07,0.08-0.09c0.74-0.62,1.48-1.24,2.22-1.85c0.45-0.38,0.89-0.78,1.37-1.12c1.05-0.75,2.12-1.46,3.17-2.21
				c1.48-1.04,3.05-1.94,4.63-2.81c1.23-0.69,2.5-1.32,3.78-1.92c1.19-0.55,2.4-1.07,3.62-1.55c1.28-0.51,2.56-0.99,3.87-1.41
				c1.36-0.45,2.75-0.83,4.13-1.22c0.65-0.19,1.32-0.36,1.99-0.49c0.59-0.12,1.19-0.15,1.79-0.26c0.75-0.14,1.48-0.34,2.23-0.47
				c0.93-0.15,1.85-0.27,2.78-0.37c0.96-0.1,1.92-0.19,2.88-0.24c1.08-0.06,2.16-0.12,3.25-0.12c1.04,0.01,2.08-0.06,3.12,0.09
				c0.98,0.14,1.99-0.03,3,0.13c0.68,0.12,1.38,0.1,2.08,0.14c0.04,0,0.08-0.01,0.12,0c0.68,0.12,1.36,0.28,2.04,0.35
				c1.01,0.1,1.99,0.29,2.97,0.49c0.98,0.2,1.95,0.38,2.92,0.61c1.7,0.39,3.36,0.91,5.02,1.44c1.65,0.52,3.27,1.12,4.86,1.81
				c0.08,0.03,0.19,0.06,0.28,0.04c0.07-0.01,0.16-0.08,0.19-0.14c0.21-0.62,0.42-1.25,0.61-1.88c0.36-1.19,0.65-2.4,1.14-3.55
				c0.19-0.45,0.45-0.87,0.69-1.3c0.23-0.43,0.41-0.9,0.7-1.29c0.8-1.12,1.65-2.19,2.81-2.97c0.15-0.1,0.33-0.21-0.03-0.35
				c-0.9-0.32-1.77-0.74-2.67-1.06c-1.29-0.47-2.59-0.9-3.9-1.33c-0.79-0.26-1.57-0.57-2.38-0.73c-0.97-0.2-1.91-0.52-2.87-0.74
				c-0.8-0.18-1.6-0.35-2.41-0.5c-0.71-0.12-1.4-0.29-2.1-0.39c-0.69-0.09-1.37-0.21-2.05-0.34c-0.37-0.06-0.74-0.07-1.11-0.13
				c-0.72-0.11-1.43-0.3-2.16-0.34c-0.95-0.05-1.88-0.14-2.82-0.25c-0.8-0.09-1.6-0.1-2.39-0.11c-2.3-0.01-4.6-0.17-6.9,0.09
				c-0.73,0.08-1.47,0-2.21,0.11c-0.85,0.13-1.72,0.13-2.58,0.25c-0.79,0.13-1.59,0.18-2.39,0.26c-0.31,0.03-0.62,0.07-0.93,0.12
				c-0.67,0.12-1.32,0.25-1.98,0.36c-0.39,0.07-0.8,0.03-1.16,0.16c-0.73,0.28-1.51,0.37-2.26,0.56c-1.17,0.28-2.34,0.51-3.49,0.87
				c-0.93,0.28-1.87,0.57-2.81,0.85c-0.7,0.22-1.42,0.4-2.09,0.68c-1.17,0.49-2.39,0.82-3.52,1.38c-0.94,0.46-1.95,0.8-2.9,1.24
				c-0.56,0.26-1.18,0.42-1.68,0.82c-0.17,0.13-0.41,0.17-0.61,0.27c-0.75,0.37-1.5,0.72-2.22,1.12c-1.01,0.57-2,1.18-2.99,1.77
				c-0.72,0.42-1.44,0.83-2.15,1.3c-1.17,0.76-2.32,1.56-3.47,2.37c-0.65,0.45-1.28,0.93-1.9,1.42c-0.56,0.44-1.08,0.92-1.63,1.37
				c-0.67,0.55-1.36,1.07-2,1.65c-0.97,0.87-1.9,1.8-2.84,2.7c-0.05,0.05-0.09,0.09-0.13,0.13c-0.37,0.35-0.76,0.69-1.11,1.05
				c-0.42,0.45-0.8,0.93-1.21,1.39c-0.64,0.69-1.29,1.37-1.94,2.06c-0.03,0.03-0.06,0.06-0.08,0.09c-0.74,0.93-1.48,1.86-2.2,2.81
				c-0.6,0.8-1.2,1.61-1.76,2.44c-0.9,1.34-1.84,2.66-2.61,4.1c-0.56,1.06-1.22,2.05-1.78,3.11c-0.83,1.58-1.64,3.17-2.33,4.83
				c-0.38,0.93-0.86,1.84-1.2,2.79c-0.58,1.57-1.09,3.17-1.59,4.77c-0.33,1.05-0.58,2.12-0.87,3.17c-0.06,0.19-0.21,0.33-0.34,0.47
				c-0.09,0.12,0.14,0.45,0.08,0.66c-0.16,0.57-0.2,1.17-0.37,1.73c-0.35,1.17-0.43,2.38-0.69,3.55c-0.19,0.89-0.28,1.81-0.36,2.72
				c-0.08,0.84-0.19,1.68-0.25,2.52c-0.12,1.5-0.14,3.01-0.13,4.51c0,1.2-0.11,2.41,0.09,3.61c0.13,0.77,0.09,1.55,0.14,2.33
				c0.04,0.59,0.07,1.19,0.12,1.78c0.03,0.36,0.08,0.74,0.14,1.1c0.11,0.6,0.31,1.2,0.33,1.8c0.03,0.93,0.18,1.82,0.39,2.71
				c0.22,1.02,0.46,2.04,0.7,3.06c0.34,1.36,0.75,2.69,1.17,4.03c0.28,0.88,0.61,1.74,0.93,2.6c0.45,1.2,0.87,2.41,1.36,3.58
				c0.24,0.59,0.53,1.17,0.79,1.75c0.25,0.52,0.47,1.07,0.72,1.59c0.77,1.58,1.58,3.13,2.49,4.64c0.62,1.02,1.24,2.05,1.9,3.05
				c0.61,0.94,1.25,1.85,1.89,2.75c0.45,0.64,0.89,1.28,1.39,1.86c0.63,0.74,1.14,1.55,1.83,2.24c0.81,0.83,1.52,1.76,2.29,2.63
				c0.37,0.41,0.77,0.78,1.16,1.17c0.44,0.44,0.86,0.89,1.32,1.31c0.51,0.5,1.06,0.98,1.58,1.47c0.44,0.42,0.84,0.89,1.29,1.28
				c0.82,0.7,1.67,1.36,2.52,2.03c0.7,0.55,1.41,1.1,2.12,1.63c1.01,0.74,2.02,1.49,3.06,2.2c0.69,0.47,1.43,0.87,2.14,1.29
				c1.19,0.71,2.37,1.45,3.58,2.11c1.16,0.63,2.38,1.14,3.53,1.77c0.9,0.49,1.84,0.86,2.75,1.31c0.79,0.39,1.65,0.63,2.48,0.94
				c1.25,0.46,2.48,0.97,3.75,1.39c1.17,0.38,2.36,0.69,3.55,1.02c1.02,0.28,2.03,0.61,3.07,0.8c1.31,0.24,2.58,0.59,3.91,0.76
				c0.72,0.08,1.44,0.25,2.16,0.35c0.41,0.06,0.83,0.07,1.23,0.13c0.75,0.11,1.49,0.3,2.23,0.35c0.93,0.05,1.84,0.13,2.77,0.24
				c0.86,0.1,1.75,0.1,2.63,0.12c1.83,0.02,3.66,0.15,5.5-0.09c0.75-0.1,1.5,0.04,2.27-0.11c0.61-0.11,1.26-0.02,1.89-0.13
				c0.71-0.13,1.44-0.12,2.15-0.24c0.77-0.13,1.57-0.17,2.34-0.26c0.36-0.05,0.71-0.14,1.07-0.22c0.45-0.09,0.89-0.19,1.35-0.26
				c0.57-0.1,1.17-0.11,1.73-0.27c1.19-0.32,2.4-0.58,3.61-0.85c1.19-0.28,2.36-0.66,3.53-1.04c1.11-0.35,2.21-0.74,3.3-1.14
				c1.27-0.47,2.53-0.96,3.78-1.47c0.52-0.21,1.05-0.42,1.54-0.7c0.59-0.33,1.25-0.52,1.85-0.82c0.94-0.45,1.86-0.93,2.77-1.42
				c0.86-0.47,1.73-0.94,2.57-1.45c1.27-0.76,2.52-1.56,3.79-2.35c1.21-0.75,2.32-1.66,3.48-2.48c1.33-0.93,2.56-1.98,3.81-3
				c1.01-0.81,1.95-1.71,2.88-2.63c1.3-1.29,2.56-2.63,3.84-3.95c0.04-0.04,0.09-0.08,0.13-0.13c0.6-0.72,1.2-1.45,1.81-2.17
				c0.43-0.51,0.86-1.02,1.26-1.55c0.51-0.68,1-1.37,1.5-2.06c0.48-0.66,0.98-1.3,1.43-1.97c0.48-0.71,0.92-1.45,1.37-2.18
				c0.41-0.68,0.8-1.37,1.21-2.06c0.34-0.59,0.7-1.17,1.03-1.77c0.47-0.86,0.99-1.7,1.36-2.6c0.53-1.27,1.13-2.5,1.65-3.77
				c0.5-1.22,0.91-2.46,1.42-3.68c0.35-0.83,0.6-1.71,0.86-2.57c0.23-0.76,0.42-1.54,0.62-2.31c0.2-0.76,0.42-1.53,0.6-2.31
				c0.19-0.84,0.3-1.7,0.51-2.53c0.14-0.58,0.15-1.17,0.33-1.75c0.16-0.49,0.23-1.02,0.25-1.54c0.04-0.74,0.14-1.48,0.25-2.22
				c0.12-0.85,0.18-1.72,0.25-2.58c0.04-0.63-0.01-1.26,0.1-1.9c0.1-0.64,0.02-1.3,0.02-1.95
				C180.01,121.7,179.98,121.07,180.03,120.44z M171.54,105.05c0,0.04,0,0.07,0.07,0.05C171.59,105.08,171.56,105.07,171.54,105.05z
				 M165.56,122.43c0.01-0.43-0.1-0.86-0.11-1.29c-0.02-0.66,0.07-1.31-0.03-1.95c-0.05-0.35-0.06-0.7-0.1-1.05
				c-0.03-0.37-0.08-0.73-0.12-1.11c-0.05-0.53-0.06-1.06-0.13-1.59c-0.1-0.83-0.24-1.65-0.36-2.47c-0.05-0.36-0.14-0.43-0.5-0.31
				c-0.37,0.13-0.75,0.25-1.12,0.39c-1.31,0.51-2.68,0.7-4.07,0.76c-0.17,0.01-0.33,0.1-0.5,0.12c-0.68,0.08-1.36,0.2-2.03,0.24
				c-0.87,0.05-1.73-0.14-2.59-0.22c-0.99-0.09-1.94-0.28-2.87-0.58c-0.22-0.07-0.39,0.08-0.3,0.29c0.18,0.46,0.22,0.97,0.35,1.44
				c0.29,1.04,0.44,2.1,0.58,3.17c0.05,0.43,0.01,0.89,0.14,1.28c0.12,0.34,0.07,0.67,0.11,1c0.03,0.32,0.1,0.65,0.11,0.98
				c0.02,0.53,0.02,1.06,0.01,1.59c-0.02,1.94,0.08,3.88-0.23,5.82c-0.13,0.86-0.18,1.73-0.37,2.59c-0.16,0.73-0.2,1.49-0.38,2.22
				c-0.32,1.26-0.72,2.5-1.09,3.75c-0.48,1.63-1.14,3.19-1.83,4.73c-0.3,0.67-0.64,1.32-0.97,1.98c-0.62,1.22-1.3,2.4-2.04,3.54
				c-0.66,1.01-1.36,1.97-2.07,2.93c-0.9,1.25-1.89,2.42-2.95,3.53c-1.08,1.11-2.22,2.17-3.35,3.23c-0.62,0.59-1.26,1.16-1.93,1.68
				c-0.8,0.62-1.66,1.18-2.49,1.78c-1.66,1.18-3.44,2.18-5.23,3.13c-1.09,0.58-2.24,1.06-3.38,1.56c-0.65,0.29-1.32,0.54-1.99,0.78
				c-1.52,0.51-3.03,1.05-4.59,1.42c-0.91,0.22-1.81,0.51-2.72,0.63c-0.91,0.11-1.79,0.37-2.72,0.41c-0.78,0.03-1.56,0.26-2.34,0.33
				c-0.92,0.09-1.84,0.14-2.76,0.13c-1.83-0.04-3.67,0.15-5.5-0.11c-0.38-0.06-0.79-0.08-1.17-0.09c-0.83-0.04-1.63-0.24-2.46-0.29
				c-0.33-0.01-0.66-0.05-0.99-0.12c-0.89-0.19-1.78-0.44-2.67-0.59c-1.08-0.19-2.11-0.52-3.14-0.83c-1.09-0.35-2.16-0.77-3.25-1.13
				c-1.22-0.39-2.38-0.92-3.53-1.47c-0.86-0.4-1.69-0.86-2.5-1.33c-1.01-0.56-2.02-1.14-2.99-1.76c-1.24-0.79-2.42-1.66-3.58-2.56
				c-1.15-0.91-2.26-1.87-3.31-2.88c-1.02-0.98-1.94-2.07-2.89-3.13c-0.52-0.57-1.06-1.13-1.5-1.75c-1.02-1.42-2.02-2.84-2.92-4.34
				c-1.02-1.56-1.89-3.16-2.6-4.98c-0.16-0.32-0.34-0.64-0.48-0.97c-0.38-0.99-0.75-1.97-1.1-2.96c-0.2-0.59-0.33-1.2-0.49-1.81
				c-0.12-0.45-0.26-0.91-0.36-1.37c-0.14-0.68-0.22-1.36-0.38-2.04c-0.21-0.86-0.42-1.71-0.5-2.6c-0.03-0.43-0.02-0.87-0.11-1.29
				c-0.17-0.86-0.19-1.73-0.2-2.59c-0.03-1.55-0.15-3.1,0.09-4.64c0.07-0.47,0.03-0.94,0.09-1.42c0.13-0.9,0.21-1.81,0.39-2.71
				c0.16-0.76,0.18-1.55,0.4-2.28c0.4-1.4,0.69-2.83,1.19-4.2c0.56-1.56,1.1-3.13,1.84-4.61c0.72-1.43,1.4-2.89,2.22-4.26
				c0.75-1.25,1.67-2.4,2.48-3.61c0.97-1.46,2.17-2.75,3.34-4.04c1-1.1,2.13-2.08,3.21-3.11c0.3-0.29,0.62-0.57,0.94-0.82
				c0.7-0.56,1.41-1.1,2.13-1.64c0.63-0.47,1.28-0.92,1.94-1.36c0.76-0.5,1.54-0.98,2.33-1.44c1.08-0.62,2.16-1.24,3.27-1.81
				c0.84-0.42,1.72-0.77,2.58-1.12c0.87-0.36,1.76-0.67,2.64-0.99c1.37-0.5,2.78-0.85,4.19-1.25c1.21-0.34,2.45-0.53,3.67-0.81
				c0.79-0.19,1.61-0.28,2.41-0.37c0.9-0.11,1.8-0.18,2.7-0.25c0.39-0.03,0.78,0.02,1.16-0.01c0.35-0.03,0.73,0.15,1.05-0.11
				c0.35,0.34,0.7-0.06,1.06-0.01c0.39,0.06,0.78,0.11,1.17,0.13c1.08,0.04,2.16,0.07,3.25,0.12c0.51,0.03,1.03,0.05,1.53,0.13
				c0.94,0.14,1.86,0.32,2.79,0.48c0.72,0.13,1.46,0.2,2.16,0.39c1.33,0.35,2.65,0.77,3.97,1.14c0.11,0.03,0.28,0.03,0.37-0.03
				c0.43-0.28,0.84-0.61,1.28-0.89c1.14-0.75,2.25-1.55,3.6-1.91c0.55-0.14,1.07-0.36,1.43-0.82c0.24-0.32,0.47-0.65,0.62-1.02
				c0.44-1.04,0.85-2.09,1.22-3.15c0.42-1.2,0.8-2.41,1.03-3.66c0.06-0.34,0.03-0.41-0.24-0.57c-0.59-0.34-1.27-0.48-1.88-0.77
				c-1.55-0.74-3.21-1.21-4.83-1.72c-1.54-0.48-3.11-0.91-4.72-1.15c-1.11-0.17-2.19-0.55-3.3-0.7c-0.9-0.12-1.8-0.27-2.71-0.38
				c-0.88-0.11-1.76-0.19-2.64-0.25c-0.71-0.04-1.44-0.09-2.15-0.09c-2.36-0.02-4.74-0.14-7.1,0.08c-0.92,0.09-1.85,0.12-2.76,0.25
				c-0.8,0.12-1.6,0.17-2.4,0.25c-0.33,0.04-0.67,0.04-0.98,0.13c-0.59,0.17-1.19,0.29-1.8,0.36c-0.36,0.05-0.71,0.16-1.06,0.24
				c-0.48,0.1-0.97,0.2-1.45,0.33c-0.34,0.1-0.7,0.18-1.05,0.28c-0.76,0.21-1.54,0.38-2.31,0.6c-0.78,0.22-1.54,0.5-2.31,0.74
				c-2.22,0.69-4.39,1.55-6.5,2.57c-1.54,0.74-3.07,1.53-4.59,2.31c-0.44,0.23-0.86,0.49-1.27,0.75c-1,0.64-2,1.27-2.99,1.94
				c-0.8,0.54-1.58,1.11-2.34,1.69c-0.77,0.57-1.51,1.17-2.27,1.75c-0.06,0.04-0.19-0.02-0.28,0c-0.06,0-0.11,0.04-0.17,0.07
				c0.22,0.19,0,0.29-0.1,0.38c-0.64,0.56-1.31,1.09-1.92,1.69c-1,0.97-1.99,1.96-2.97,2.96c-0.61,0.63-1.23,1.27-1.8,1.93
				c-0.67,0.79-1.31,1.61-1.95,2.43c-0.56,0.74-1.13,1.48-1.66,2.24c-0.66,0.96-1.31,1.93-1.92,2.93c-0.73,1.19-1.45,2.4-2.1,3.64
				c-0.66,1.25-1.23,2.53-1.82,3.81c-0.73,1.59-1.33,3.24-1.84,4.91c-0.27,0.89-0.65,1.74-0.77,2.67c-0.07,0.51-0.34,1-0.45,1.51
				c-0.31,1.39-0.6,2.77-0.86,4.16c-0.16,0.92-0.3,1.85-0.36,2.78c-0.05,0.86-0.15,1.72-0.24,2.58c-0.09,0.75,0.03,1.51-0.12,2.27
				c-0.09,0.47,0,0.97-0.02,1.45c-0.03,0.46,0.3,0.91,0,1.36c0.32,0.37,0.04,0.8,0.1,1.2c0.13,0.8,0.11,1.63,0.15,2.44
				c0.03,0.44,0.06,0.87,0.13,1.3c0.1,0.64,0.31,1.28,0.34,1.92c0.03,0.88,0.21,1.73,0.37,2.59c0.19,0.99,0.44,1.97,0.72,2.94
				c0.19,0.65,0.34,1.32,0.52,1.97c0.17,0.56,0.36,1.11,0.57,1.66c0.32,0.9,0.66,1.8,1.02,2.69c0.49,1.22,0.98,2.45,1.53,3.64
				c0.52,1.12,1.14,2.21,1.71,3.31c0.09,0.17,0.17,0.34,0.27,0.5c0.53,0.86,1.05,1.72,1.59,2.58c0.61,0.95,1.2,1.91,1.86,2.82
				c0.6,0.82,1.3,1.57,1.88,2.4c0.73,1.06,1.62,1.98,2.49,2.92c1.19,1.28,2.52,2.44,3.76,3.68c1.06,1.05,2.2,1.98,3.39,2.88
				c1.01,0.79,2.01,1.6,3.06,2.32c1.85,1.25,3.75,2.37,5.72,3.42c1.61,0.86,3.25,1.67,4.93,2.38c1.44,0.6,2.87,1.21,4.37,1.68
				c1.34,0.43,2.67,0.95,4.03,1.28c1.15,0.29,2.3,0.57,3.47,0.79c1.05,0.2,2.1,0.42,3.17,0.57c0.36,0.06,0.75,0.03,1.1,0.14
				c1.08,0.33,2.2,0.25,3.28,0.46c0.5,0.1,1.02,0.03,1.54,0.11c0.84,0.13,1.71,0.14,2.57,0.14c1.41,0.01,2.81,0.04,4.22-0.11
				c0.53-0.06,1.06,0,1.59-0.1c0.74-0.14,1.51-0.1,2.27-0.15c0.45-0.03,0.92,0,1.34-0.14c0.35-0.11,0.67-0.05,1-0.1
				c0.64-0.11,1.28-0.25,1.92-0.36c0.57-0.1,1.16-0.14,1.72-0.26c0.88-0.17,1.75-0.38,2.62-0.61c1.13-0.3,2.26-0.61,3.38-0.95
				c1.29-0.4,2.57-0.79,3.82-1.26c1.37-0.51,2.72-1.1,4.05-1.69c1.01-0.45,2.01-0.96,3-1.46c0.8-0.41,1.6-0.83,2.39-1.28
				c0.82-0.49,1.61-1.03,2.43-1.52c1.29-0.76,2.51-1.62,3.7-2.53c0.62-0.48,1.23-0.97,1.84-1.47c0.73-0.59,1.45-1.2,2.17-1.81
				c0.14-0.11,0.26-0.26,0.39-0.38c0.73-0.65,1.48-1.28,2.18-1.95c0.6-0.58,1.15-1.22,1.73-1.83c0.45-0.48,0.9-0.96,1.33-1.47
				c0.67-0.79,1.31-1.6,1.94-2.42c0.58-0.75,1.15-1.52,1.68-2.29c0.69-0.99,1.39-1.98,2.02-3.01c0.67-1.09,1.29-2.22,1.9-3.36
				c0.47-0.86,0.89-1.74,1.3-2.63c0.56-1.23,1.12-2.46,1.61-3.73c0.42-1.08,0.75-2.2,1.1-3.32c0.22-0.7,0.43-1.41,0.61-2.13
				c0.23-0.9,0.44-1.81,0.65-2.72c0.16-0.7,0.32-1.41,0.45-2.13c0.11-0.63,0.16-1.27,0.25-1.9c0.11-0.79,0.27-1.57,0.35-2.35
				c0.07-0.65,0.04-1.31,0.11-1.97C165.54,124.88,165.54,123.65,165.56,122.43z M156.07,70.4c0.09-0.39,0.05-0.44-0.25-0.75
				c-0.67-0.71-1.45-1.27-2.22-1.85c-0.83-0.64-1.64-1.32-2.47-1.98c-0.09-0.07-0.22-0.1-0.34-0.16c-0.05,0.13-0.14,0.25-0.14,0.37
				c0,0.23,0.09,0.45,0.08,0.67c-0.05,0.48-0.14,0.96-0.21,1.43c-0.1,0.6-0.16,1.19-0.31,1.77c-0.19,0.75-0.42,1.48-0.67,2.21
				c-0.36,1.04-0.77,2.05-1.35,3.11c-0.09,0.18-0.2,0.36-0.29,0.54c-0.25,0.49-0.48,0.98-0.74,1.46c-0.16,0.28,0.02,0.27,0.19,0.25
				c0.25-0.02,0.49-0.07,0.74-0.12c0.4-0.08,0.79-0.16,1.18-0.25c0.53-0.11,1.08-0.23,1.61-0.36c0.47-0.11,0.92-0.23,1.38-0.34
				c0.72-0.17,1.44-0.36,2.17-0.51c0.43-0.08,0.67-0.3,0.72-0.75c0.05-0.43,0-0.9,0.16-1.27c0.23-0.5,0.17-1.02,0.32-1.52
				C155.82,71.71,155.91,71.05,156.07,70.4z M151.39,125.05c0.03-0.49,0.04-0.97-0.01-1.46c-0.04-0.46-0.05-0.92-0.08-1.38
				c-0.07-1.01-0.14-2.01-0.25-3.01c-0.1-0.85-0.2-1.7-0.39-2.53c-0.22-1.03-0.4-2.07-0.62-3.1c-0.06-0.3-0.27-0.52-0.55-0.6
				c-0.5-0.16-1.03-0.24-1.55-0.38c-0.65-0.18-1.3-0.38-1.95-0.58c-0.54-0.17-1.06-0.39-1.61-0.51c-1.14-0.23-2.25-0.62-3.41-0.77
				c-0.87-0.11-1.72-0.34-2.6-0.34c-0.2,0-0.41,0.03-0.6-0.03c-0.41-0.12-0.79-0.16-1.19,0.03c-0.17,0.07-0.47-0.05-0.51,0.19
				c-0.04,0.17,0.08,0.39,0.17,0.57c0.43,0.93,0.7,1.94,1.1,2.97c0,0.11-0.02,0.22,0.01,0.32c0.43,1.29,0.64,2.62,0.88,3.97
				c0.16,0.9,0.25,1.82,0.3,2.71c0.08,1.57-0.05,3.14-0.09,4.71c0,0.01,0,0.04,0,0.06c-0.12,0.72-0.23,1.44-0.36,2.16
				c-0.12,0.66-0.24,1.32-0.42,1.97c-0.19,0.72-0.45,1.43-0.67,2.15c-0.35,1.12-0.8,2.19-1.3,3.25c-0.75,1.6-1.59,3.15-2.64,4.57
				c-0.75,1.03-1.52,2.04-2.37,2.98c-0.89,0.96-1.86,1.85-2.83,2.72c-0.76,0.67-1.57,1.3-2.39,1.89c-0.9,0.65-1.82,1.28-2.79,1.8
				c-0.93,0.5-1.82,1.07-2.83,1.41c-0.8,0.27-1.56,0.67-2.35,0.95c-0.97,0.33-1.95,0.61-2.93,0.9c-1.12,0.33-2.26,0.55-3.43,0.69
				c-0.36,0.05-0.76,0.02-1.1,0.14c-0.61,0.22-1.26-0.04-1.86,0.23c-2.02-0.02-4.05,0.1-6.06-0.24c-0.42-0.07-0.86-0.07-1.28-0.13
				c-0.32-0.04-0.64-0.14-0.96-0.21c-0.57-0.13-1.14-0.3-1.72-0.39c-1.07-0.17-2.08-0.57-3.11-0.91c-0.87-0.29-1.71-0.66-2.56-1.03
				c-1.17-0.52-2.31-1.1-3.41-1.77c-0.68-0.42-1.37-0.83-2.02-1.3c-0.98-0.72-1.97-1.42-2.85-2.25c-1.18-1.11-2.36-2.23-3.34-3.54
				c-0.68-0.9-1.37-1.77-1.99-2.71c-0.94-1.45-1.75-2.97-2.44-4.54c-0.2-0.46-0.39-0.94-0.56-1.41c-0.47-1.35-0.83-2.72-1.13-4.11
				c-0.22-1.08-0.42-2.15-0.57-3.24c-0.11-0.78-0.08-1.59-0.14-2.38c-0.05-0.66,0.09-1.31,0.03-1.98c-0.05-0.48,0.06-0.98,0.1-1.47
				c0-0.01,0-0.04,0-0.06c0.12-0.76,0.23-1.52,0.37-2.28c0.09-0.51,0.21-1.01,0.33-1.51c0.24-1.01,0.55-2,0.87-2.99
				c0.47-1.44,1.1-2.81,1.79-4.14c0.61-1.17,1.35-2.3,2.1-3.4c0.94-1.37,2.02-2.6,3.14-3.81c0.7-0.76,1.52-1.41,2.31-2.08
				c0.74-0.62,1.51-1.24,2.3-1.81c1.61-1.14,3.31-2.14,5.11-2.94c1.3-0.58,2.6-1.12,3.96-1.48c0.55-0.15,1.09-0.34,1.63-0.49
				c0.64-0.17,1.29-0.34,1.93-0.48c0.47-0.11,0.95-0.19,1.42-0.25c0.49-0.06,0.99-0.06,1.47-0.13c0.92-0.14,1.84-0.26,2.77-0.23
				c1.11,0.03,2.2-0.04,3.31,0.09c1,0.11,2.02,0.18,3.02,0.37c1.06,0.21,2.14,0.37,3.17,0.73c0.34,0.11,0.45,0.03,0.58-0.35
				c0.05-0.18,0.07-0.37,0.14-0.55c0.47-1.38,0.67-2.83,1.17-4.21c0.32-0.86,0.56-1.75,0.98-2.58c0.49-0.97,0.83-2.03,1.67-2.79
				c0.1-0.09,0.18-0.29-0.15-0.36c-0.47-0.09-0.93-0.3-1.4-0.43c-1.03-0.27-2.05-0.55-3.1-0.76c-0.81-0.18-1.66-0.2-2.46-0.4
				c-1.06-0.25-2.15-0.28-3.22-0.45c-0.6-0.11-1.23-0.11-1.84-0.11c-1.76-0.01-3.54-0.12-5.31,0.08c-0.9,0.1-1.81,0.15-2.71,0.25
				c-0.57,0.06-1.15,0.16-1.72,0.24c-1.15,0.17-2.28,0.35-3.4,0.63c-1.02,0.24-2.03,0.49-3.03,0.79c-2.38,0.7-4.71,1.61-6.97,2.68
				c-1.41,0.66-2.77,1.39-4.08,2.22c-0.71,0.46-1.46,0.84-2.14,1.32c-0.92,0.65-1.78,1.39-2.69,2.06c-1.1,0.8-2.13,1.7-3.11,2.64
				c-1.45,1.38-2.83,2.83-4.05,4.41c-0.64,0.83-1.29,1.65-1.89,2.51c-0.54,0.77-1.03,1.57-1.53,2.36c-0.5,0.8-1.01,1.61-1.44,2.45
				c-0.5,0.95-0.92,1.94-1.36,2.91c-0.26,0.57-0.52,1.13-0.73,1.71c-0.33,0.92-0.64,1.84-0.93,2.78c-0.24,0.8-0.45,1.6-0.65,2.41
				c-0.18,0.68-0.35,1.37-0.49,2.06c-0.14,0.73-0.26,1.48-0.36,2.22c-0.07,0.51-0.06,1.03-0.13,1.53c-0.16,0.98-0.24,1.97-0.22,2.95
				c0,1.45-0.13,2.9,0.09,4.35c0.1,0.62,0.09,1.26,0.14,1.89c0,0.06-0.02,0.13,0,0.19c0.2,0.5,0.25,1.01,0.25,1.54
				c0,0.19-0.03,0.38,0.02,0.55c0.18,0.83,0.37,1.67,0.59,2.49c0.25,0.93,0.5,1.87,0.79,2.79c0.27,0.84,0.64,1.64,0.91,2.49
				c0.37,1.17,0.96,2.24,1.41,3.37c0.32,0.83,0.79,1.59,1.2,2.37c0.47,0.9,1.03,1.78,1.61,2.63c0.58,0.85,1.25,1.63,1.84,2.47
				c0.98,1.4,2.11,2.66,3.29,3.88c0.75,0.78,1.56,1.51,2.36,2.25c0.56,0.51,1.17,1,1.75,1.51c1.03,0.91,2.14,1.72,3.31,2.45
				c1.46,0.91,2.89,1.84,4.39,2.66c1.08,0.6,2.24,1.06,3.37,1.57c0.72,0.31,1.45,0.64,2.19,0.89c2.18,0.72,4.34,1.47,6.62,1.84
				c1,0.17,1.98,0.42,2.98,0.6c0.63,0.12,1.27,0.19,1.91,0.24c1.06,0.1,2.12,0.18,3.19,0.25c0.48,0.03,0.97,0,1.46,0
				c0.49,0,0.98-0.04,1.46,0.02c0.46,0.05,0.9-0.06,1.36-0.07c1.15-0.03,2.3-0.19,3.45-0.32c0.58-0.06,1.16-0.14,1.73-0.24
				c1.1-0.19,2.19-0.37,3.28-0.62c1.05-0.23,2.09-0.53,3.12-0.85c0.95-0.29,1.88-0.68,2.83-0.96c1.27-0.38,2.46-0.94,3.65-1.49
				c1.14-0.51,2.22-1.12,3.33-1.69c0.42-0.22,0.85-0.43,1.23-0.71c1.38-0.99,2.84-1.84,4.17-2.9c1.18-0.95,2.38-1.88,3.48-2.92
				c1.3-1.25,2.6-2.51,3.72-3.94c0.56-0.73,1.2-1.41,1.75-2.14c0.59-0.78,1.16-1.59,1.69-2.42c0.65-1.04,1.28-2.1,1.85-3.19
				c0.54-1.03,1.01-2.1,1.48-3.17c0.31-0.7,0.6-1.42,0.85-2.14c0.39-1.08,0.76-2.17,1.1-3.27c0.2-0.65,0.35-1.32,0.5-1.99
				c0.14-0.67,0.27-1.35,0.39-2.03c0.12-0.68,0.25-1.37,0.34-2.05c0.07-0.57,0.05-1.16,0.14-1.72
				C151.31,126.94,151.33,126,151.39,125.05z M137.97,125.21c0.25-0.82-0.09-1.66,0.21-2.46c-0.29-0.8-0.04-1.64-0.19-2.47
				c-0.14-0.78-0.14-1.6-0.29-2.39c-0.1-0.53-0.26-1.04-0.34-1.56c-0.11-0.66-0.33-1.29-0.5-1.93c-0.31-1.23-0.87-2.37-1.25-3.57
				c-0.06-0.2-0.29-0.39-0.59-0.32c-0.34,0.1-0.7,0.17-1.05,0.25c-1.22,0.28-2.35,0.81-3.45,1.39c-0.95,0.52-1.88,1.07-2.88,1.67
				c-0.62,0.41-1.26,0.8-1.85,1.26c-1.09,0.84-2.04,1.81-2.65,3.09c-0.36,0.77-0.92,1.44-1.4,2.16c-0.37,0.56-0.83,1.05-1.28,1.55
				c-0.59,0.67-1.08,1.43-1.66,2.11c-0.75,0.88-1.55,1.72-2.31,2.58c-0.1,0.1-0.16,0.23-0.25,0.32c-0.22,0.24-0.43,0.48-0.67,0.7
				c-0.32,0.29-0.68,0.55-0.97,0.86c-0.54,0.58-1.02,1.22-1.57,1.79c-0.51,0.53-1.09,1-1.62,1.52c-0.55,0.55-1.05,1.15-1.6,1.7
				c-0.97,0.98-1.96,1.94-3.03,2.82c-0.92,0.77-1.73,1.68-2.64,2.48c-0.65,0.59-1.34,1.13-2.06,1.63c-1.05,0.75-2.13,1.44-3.19,2.17
				c-1.3,0.9-2.56,1.85-3.88,2.71c-1.43,0.92-2.87,1.85-4.39,2.65c-0.5,0.26-0.98,0.47-1.54,0.53c-0.06,0.01-0.11,0.04-0.16,0.05
				c0.04,0.05,0.07,0.11,0.12,0.13c0.38,0.19,0.75,0.36,1.12,0.55c2.2,1.17,4.46,2.18,6.88,2.83c1.18,0.32,2.36,0.6,3.56,0.82
				c0.84,0.16,1.68,0.28,2.53,0.37c0.69,0.07,1.39,0.13,2.09,0.12c1.08,0,2.16-0.07,3.24-0.11c0.56-0.03,1.1-0.08,1.66-0.13
				c0.33-0.03,0.66-0.05,0.99-0.12c0.7-0.14,1.4-0.38,2.11-0.47c0.96-0.11,1.87-0.41,2.77-0.69c1.51-0.47,3-1.01,4.39-1.76
				c1.07-0.58,2.15-1.11,3.19-1.72c0.67-0.39,1.25-0.92,1.9-1.33c1.15-0.72,2.14-1.64,3.14-2.56c0.73-0.68,1.4-1.44,2.07-2.18
				c0.61-0.69,1.23-1.39,1.76-2.14c0.7-1.01,1.38-2.06,1.97-3.14c0.96-1.73,1.79-3.53,2.33-5.44c0.3-1.06,0.58-2.12,0.84-3.19
				c0.13-0.5,0.19-1.02,0.25-1.54C137.89,126.27,137.82,125.71,137.97,125.21z M118.67,86.47c0-0.02-0.03-0.06-0.05-0.09
				c-0.08,0.08-0.16,0.16-0.12,0.24C118.56,86.57,118.62,86.53,118.67,86.47z M98.16,181.67c-0.05-0.02-0.1-0.04-0.21,0.02
				c0.06,0.02,0.13,0.04,0.19,0.05C98.14,181.74,98.15,181.69,98.16,181.67z M98.07,109c-0.07-0.02-0.13-0.03-0.2-0.05
				c0,0-0.01,0.05-0.01,0.08C97.9,109.04,97.96,109.05,98.07,109z M97.22,181.57c-0.07-0.02-0.13-0.04-0.2-0.05
				c0,0-0.01,0.05-0.02,0.07C97.05,181.6,97.11,181.62,97.22,181.57z M92.94,65.35c-0.02-0.06-0.04-0.12-0.06-0.19
				c-0.04,0.04-0.07,0.08-0.18,0.18C92.78,65.35,92.86,65.35,92.94,65.35z M90.51,52.54c0.02,0.01,0.05,0.03,0.07,0.04
				C90.58,52.55,90.58,52.51,90.51,52.54z M82.02,85.66c0.01,0.04,0.01,0.07,0.07,0.05C82.07,85.69,82.04,85.68,82.02,85.66z
				 M75.14,71.2c0.03,0.01,0.05,0.03,0.07,0.04C75.21,71.21,75.21,71.17,75.14,71.2z M71.86,73.04c0.04-0.01,0.07-0.02,0.05-0.08
				C71.89,72.99,71.88,73.01,71.86,73.04z M65.03,77.79c0.04,0,0.07-0.01,0.05-0.07C65.06,77.74,65.05,77.77,65.03,77.79z
				 M63.19,79.37c-0.01-0.05-0.03-0.11-0.03-0.16c-0.03,0.01-0.07,0.02-0.07,0.02C63.09,79.3,63.11,79.36,63.19,79.37z
				 M60.56,164.93c0,0.04,0,0.08,0.07,0.05C60.6,164.96,60.58,164.95,60.56,164.93z M52.81,72.16c-0.05-0.01-0.11-0.05-0.15-0.04
				c-0.11,0.03-0.22,0.08-0.39,0.12c0,0.03,0,0.07,0,0.11c0.02-0.05,0.04-0.08,0.13-0.12c0.08,0,0.15,0.01,0.23,0
				C52.69,72.22,52.75,72.19,52.81,72.16z M51.91,72.96c0-0.04,0-0.08,0-0.12c-0.01,0.04-0.04,0.09-0.12,0.12
				c-0.05,0.02-0.11,0.03-0.16,0.03c0.01,0.03,0.02,0.06,0.03,0.08C51.72,73.04,51.79,73,51.91,72.96z M51.41,73.69
				c0.02-0.01,0.03-0.05,0.05-0.08c-0.04-0.01-0.07-0.04-0.11-0.04c-0.09,0-0.19,0-0.36,0.06c-0.06,0.03-0.14,0.06-0.2,0.09
				c0.04,0.03,0.09,0.1,0.12,0.09C51.08,73.78,51.25,73.74,51.41,73.69z"/>
			<path class="st1" d="M179.96,118.6c-0.02,0.62,0.11,1.23,0.07,1.84c-0.05,0.63-0.02,1.26-0.02,1.89c0,0.65,0.08,1.31-0.02,1.95
				c-0.11,0.64-0.06,1.27-0.1,1.9c-0.07,0.86-0.13,1.73-0.25,2.58c-0.11,0.74-0.21,1.48-0.25,2.22c-0.02,0.52-0.09,1.05-0.25,1.54
				c-0.18,0.58-0.19,1.17-0.33,1.75c-0.21,0.83-0.32,1.69-0.51,2.53c-0.18,0.78-0.4,1.55-0.6,2.31c-0.2,0.77-0.39,1.55-0.62,2.31
				c-0.26,0.86-0.51,1.74-0.86,2.57c-0.51,1.22-0.92,2.46-1.42,3.68c-0.52,1.27-1.12,2.5-1.65,3.77c-0.37,0.9-0.89,1.74-1.36,2.6
				c-0.33,0.6-0.69,1.18-1.03,1.77c-0.41,0.69-0.8,1.38-1.21,2.06c-0.45,0.73-0.89,1.47-1.37,2.18c-0.45,0.67-0.95,1.31-1.43,1.97
				c-0.5,0.69-0.99,1.38-1.5,2.06c-0.4,0.53-0.83,1.04-1.26,1.55c-0.61,0.72-1.21,1.45-1.81,2.17c-0.04,0.05-0.09,0.09-0.13,0.13
				c-1.28,1.32-2.54,2.66-3.84,3.95c-0.93,0.92-1.87,1.82-2.88,2.63c-1.25,1.02-2.48,2.07-3.81,3c-1.16,0.82-2.27,1.73-3.48,2.48
				c-1.27,0.79-2.52,1.59-3.79,2.35c-0.84,0.51-1.71,0.98-2.57,1.45c-0.91,0.49-1.83,0.97-2.77,1.42c-0.6,0.3-1.26,0.49-1.85,0.82
				c-0.49,0.28-1.02,0.49-1.54,0.7c-1.25,0.51-2.51,1-3.78,1.47c-1.09,0.4-2.19,0.79-3.3,1.14c-1.17,0.38-2.34,0.76-3.53,1.04
				c-1.21,0.27-2.42,0.53-3.61,0.85c-0.56,0.16-1.16,0.17-1.73,0.27c-0.46,0.07-0.9,0.17-1.35,0.26c-0.36,0.08-0.71,0.17-1.07,0.22
				c-0.77,0.09-1.57,0.13-2.34,0.26c-0.71,0.12-1.44,0.11-2.15,0.24c-0.63,0.11-1.28,0.02-1.89,0.13c-0.77,0.15-1.52,0.01-2.27,0.11
				c-1.84,0.24-3.67,0.11-5.5,0.09c-0.88-0.02-1.77-0.02-2.63-0.12c-0.93-0.11-1.84-0.19-2.77-0.24c-0.74-0.05-1.48-0.24-2.23-0.35
				c-0.4-0.06-0.82-0.07-1.23-0.13c-0.72-0.1-1.44-0.27-2.16-0.35c-1.33-0.17-2.6-0.52-3.91-0.76c-1.04-0.19-2.05-0.52-3.07-0.8
				c-1.19-0.33-2.38-0.64-3.55-1.02c-1.27-0.42-2.5-0.93-3.75-1.39c-0.83-0.31-1.69-0.55-2.48-0.94c-0.91-0.45-1.85-0.82-2.75-1.31
				c-1.15-0.63-2.37-1.14-3.53-1.77c-1.21-0.66-2.39-1.4-3.58-2.11c-0.71-0.42-1.45-0.82-2.14-1.29c-1.04-0.71-2.05-1.46-3.06-2.2
				c-0.71-0.53-1.42-1.08-2.12-1.63c-0.85-0.67-1.7-1.33-2.52-2.03c-0.45-0.39-0.85-0.86-1.29-1.28c-0.52-0.49-1.07-0.97-1.58-1.47
				c-0.46-0.42-0.88-0.87-1.32-1.31c-0.39-0.39-0.79-0.76-1.16-1.17c-0.77-0.87-1.48-1.8-2.29-2.63c-0.69-0.69-1.2-1.5-1.83-2.24
				c-0.5-0.58-0.94-1.22-1.39-1.86c-0.64-0.9-1.28-1.81-1.89-2.75c-0.66-1-1.28-2.03-1.9-3.05c-0.91-1.51-1.72-3.06-2.49-4.64
				c-0.25-0.52-0.47-1.07-0.72-1.59c-0.26-0.58-0.55-1.16-0.79-1.75c-0.49-1.17-0.91-2.38-1.36-3.58c-0.32-0.86-0.65-1.72-0.93-2.6
				c-0.42-1.34-0.83-2.67-1.17-4.03c-0.24-1.02-0.48-2.04-0.7-3.06c-0.21-0.89-0.36-1.78-0.39-2.71c-0.02-0.6-0.22-1.2-0.33-1.8
				c-0.06-0.36-0.11-0.74-0.14-1.1c-0.05-0.59-0.08-1.19-0.12-1.78c-0.05-0.78-0.01-1.56-0.14-2.33c-0.2-1.2-0.09-2.41-0.09-3.61
				c-0.01-1.5,0.01-3.01,0.13-4.51c0.06-0.84,0.17-1.68,0.25-2.52c0.08-0.91,0.17-1.83,0.36-2.72c0.26-1.17,0.34-2.38,0.69-3.55
				c0.17-0.56,0.21-1.16,0.37-1.73c0.06-0.21-0.17-0.54-0.08-0.66c0.13-0.14,0.28-0.28,0.34-0.47c0.29-1.05,0.54-2.12,0.87-3.17
				c0.5-1.6,1.01-3.2,1.59-4.77c0.34-0.95,0.82-1.86,1.2-2.79c0.69-1.66,1.5-3.25,2.33-4.83c0.56-1.06,1.22-2.05,1.78-3.11
				c0.77-1.44,1.71-2.76,2.61-4.1c0.56-0.83,1.16-1.64,1.76-2.44c0.72-0.95,1.46-1.88,2.2-2.81c0.02-0.03,0.05-0.06,0.08-0.09
				c0.65-0.69,1.3-1.37,1.94-2.06c0.41-0.46,0.79-0.94,1.21-1.39c0.35-0.36,0.74-0.7,1.11-1.05c0.04-0.04,0.08-0.08,0.13-0.13
				c0.94-0.9,1.87-1.83,2.84-2.7c0.64-0.58,1.33-1.1,2-1.65c0.55-0.45,1.07-0.93,1.63-1.37c0.62-0.49,1.25-0.97,1.9-1.42
				c1.15-0.81,2.3-1.61,3.47-2.37c0.71-0.47,1.43-0.88,2.15-1.3c0.99-0.59,1.98-1.2,2.99-1.77c0.72-0.4,1.47-0.75,2.22-1.12
				c0.2-0.1,0.44-0.14,0.61-0.27c0.5-0.4,1.12-0.56,1.68-0.82c0.95-0.44,1.96-0.78,2.9-1.24c1.13-0.56,2.35-0.89,3.52-1.38
				c0.67-0.28,1.39-0.46,2.09-0.68c0.94-0.28,1.88-0.57,2.81-0.85c1.15-0.36,2.32-0.59,3.49-0.87c0.75-0.19,1.53-0.28,2.26-0.56
				c0.36-0.13,0.77-0.09,1.16-0.16c0.66-0.11,1.31-0.24,1.98-0.36c0.31-0.05,0.62-0.09,0.93-0.12c0.8-0.08,1.6-0.13,2.39-0.26
				c0.86-0.12,1.73-0.12,2.58-0.25c0.74-0.11,1.48-0.03,2.21-0.11c2.3-0.26,4.6-0.1,6.9-0.09c0.79,0.01,1.59,0.02,2.39,0.11
				c0.94,0.11,1.87,0.2,2.82,0.25c0.73,0.04,1.44,0.23,2.16,0.34c0.37,0.06,0.74,0.07,1.11,0.13c0.68,0.13,1.36,0.25,2.05,0.34
				c0.7,0.1,1.39,0.27,2.1,0.39c0.81,0.15,1.61,0.32,2.41,0.5c0.96,0.22,1.9,0.54,2.87,0.74c0.81,0.16,1.59,0.47,2.38,0.73
				c1.31,0.43,2.61,0.86,3.9,1.33c0.9,0.32,1.77,0.74,2.67,1.06c0.36,0.14,0.18,0.25,0.03,0.35c-1.16,0.78-2.01,1.85-2.81,2.97
				c-0.29,0.39-0.47,0.86-0.7,1.29c-0.24,0.43-0.5,0.85-0.69,1.3c-0.49,1.15-0.78,2.36-1.14,3.55c-0.19,0.63-0.4,1.26-0.61,1.88
				c-0.03,0.06-0.12,0.13-0.19,0.14c-0.09,0.02-0.2-0.01-0.28-0.04c-1.59-0.69-3.21-1.29-4.86-1.81c-1.66-0.53-3.32-1.05-5.02-1.44
				c-0.97-0.23-1.94-0.41-2.92-0.61c-0.98-0.2-1.96-0.39-2.97-0.49c-0.68-0.07-1.36-0.23-2.04-0.35c-0.04-0.01-0.08,0-0.12,0
				c-0.7-0.04-1.4-0.02-2.08-0.14c-1.01-0.16-2.02,0.01-3-0.13c-1.04-0.15-2.08-0.08-3.12-0.09c-1.09,0-2.17,0.06-3.25,0.12
				c-0.96,0.05-1.92,0.14-2.88,0.24c-0.93,0.1-1.85,0.22-2.78,0.37c-0.75,0.13-1.48,0.33-2.23,0.47c-0.6,0.11-1.2,0.14-1.79,0.26
				c-0.67,0.13-1.34,0.3-1.99,0.49c-1.38,0.39-2.77,0.77-4.13,1.22c-1.31,0.42-2.59,0.9-3.87,1.41c-1.22,0.48-2.43,1-3.62,1.55
				c-1.28,0.6-2.55,1.23-3.78,1.92c-1.58,0.87-3.15,1.77-4.63,2.81c-1.05,0.75-2.12,1.46-3.17,2.21c-0.48,0.34-0.92,0.74-1.37,1.12
				c-0.74,0.61-1.48,1.23-2.22,1.85c-0.03,0.02-0.05,0.06-0.08,0.09c-1.11,1.06-2.23,2.1-3.31,3.19c-0.81,0.82-1.57,1.69-2.33,2.57
				c-0.76,0.89-1.51,1.8-2.23,2.73c-0.52,0.67-1,1.37-1.47,2.07c-0.72,1.06-1.44,2.13-2.11,3.22c-0.43,0.69-0.79,1.42-1.17,2.13
				c-0.44,0.81-0.93,1.61-1.29,2.45c-0.73,1.67-1.57,3.29-2.1,5.05c-0.29,0.97-0.76,1.89-1.07,2.85c-0.34,1.02-0.59,2.08-0.86,3.12
				c-0.18,0.7-0.34,1.41-0.49,2.12c-0.21,0.99-0.42,1.99-0.61,2.98c-0.07,0.38-0.07,0.78-0.13,1.16c-0.13,0.86-0.1,1.75-0.36,2.6
				c-0.02,0.07,0,0.16,0,0.24c-0.05,2.02-0.09,4.03-0.13,6.05c0,0.36-0.01,0.73,0,1.1c0.04,0.81,0.04,1.63,0.14,2.44
				c0.08,0.74,0.15,1.48,0.25,2.22c0.13,1,0.19,2.02,0.54,3c0.18,0.5,0.18,1.06,0.29,1.58c0.22,1.01,0.44,2.01,0.68,3.01
				c0.2,0.87,0.41,1.74,0.67,2.59c0.23,0.77,0.5,1.54,0.79,2.29c0.5,1.3,0.99,2.6,1.55,3.87c0.62,1.37,1.28,2.72,1.99,4.05
				c0.5,0.96,1.06,1.89,1.67,2.79c0.45,0.66,0.85,1.35,1.3,2.02c0.47,0.71,0.96,1.39,1.46,2.08c0.45,0.63,0.9,1.26,1.38,1.86
				c0.35,0.44,0.75,0.83,1.12,1.25c0.08,0.1,0.13,0.21,0.19,0.31c0.88,0.93,1.74,1.75,2.48,2.65c1.11,1.29,2.4,2.39,3.66,3.5
				c1.35,1.18,2.77,2.31,4.22,3.36c1.3,0.94,2.69,1.75,4.03,2.63c1.24,0.8,2.54,1.5,3.85,2.19c1.84,0.99,3.75,1.82,5.7,2.58
				c1.6,0.63,3.19,1.23,4.83,1.74c1.14,0.36,2.31,0.62,3.46,0.92c0.78,0.2,1.54,0.42,2.32,0.59c0.54,0.13,1.11,0.17,1.66,0.27
				c0.54,0.1,1.08,0.23,1.62,0.34c0.3,0.07,0.61,0.11,0.91,0.14c0.91,0.1,1.81,0.14,2.71,0.26c1.34,0.19,2.7,0.16,4.04,0.27
				c1.22,0.1,2.44,0.06,3.67,0.08c0.54,0.02,1.07-0.09,1.62-0.11c0.59-0.01,1.18,0.03,1.76-0.01c0.78-0.05,1.56-0.14,2.34-0.24
				c0.99-0.11,1.97-0.21,2.96-0.37c1-0.16,1.98-0.44,2.98-0.59c1.67-0.24,3.29-0.69,4.9-1.14c1.41-0.4,2.82-0.8,4.18-1.39
				c0.91-0.4,1.88-0.65,2.8-1.02c0.79-0.32,1.54-0.71,2.31-1.07c0.71-0.33,1.44-0.64,2.14-1.01c1.62-0.86,3.26-1.69,4.79-2.73
				c0.79-0.55,1.66-1,2.47-1.54c0.68-0.46,1.34-0.98,2-1.48c0.65-0.49,1.32-0.96,1.95-1.47c0.69-0.56,1.36-1.15,2.01-1.76
				c1.37-1.29,2.73-2.59,4.04-3.93c0.83-0.84,1.58-1.78,2.34-2.69c0.73-0.87,1.46-1.74,2.15-2.64c0.59-0.78,1.15-1.59,1.68-2.41
				c0.71-1.09,1.41-2.18,2.07-3.29c0.37-0.61,0.66-1.27,0.99-1.91c0.39-0.73,0.81-1.45,1.16-2.2c0.46-0.96,0.88-1.95,1.28-2.94
				c0.43-1.1,0.83-2.22,1.23-3.33c0.3-0.86,0.58-1.72,0.84-2.58c0.26-0.87,0.49-1.75,0.71-2.64c0.16-0.64,0.26-1.31,0.39-1.97
				c0.16-0.76,0.32-1.53,0.48-2.3c0.07-0.31,0.01-0.61,0.12-0.93c0.13-0.42,0.06-0.9,0.15-1.34c0.1-0.52,0.08-1.04,0.21-1.55
				c0.11-0.41-0.02-0.86,0.03-1.28c0.2-2.18,0.11-4.36,0.09-6.54c0-0.69-0.02-1.4-0.22-2.09c-0.04-0.16,0.01-0.33,0-0.49
				c-0.08-0.89-0.11-1.79-0.36-2.66c-0.09-0.35-0.08-0.74-0.13-1.1c-0.04-0.37-0.03-0.76-0.17-1.09c-0.13-0.32,0.04-0.4,0.21-0.52
				c1.04-0.73,2.08-1.45,2.91-2.41c0.39-0.44,0.76-0.9,1.12-1.36c0.24-0.31,0.44-0.65,0.7-0.93c0.93-0.99,1.63-2.13,2.18-3.37
				c0.25-0.54,0.46-1.12,0.6-1.7c0.08-0.32,0.26-0.46,0.48-0.34c0.39,0.2,0.68-0.04,0.85-0.22c0.4-0.39,0.9-0.58,1.37-0.84
				c0.05-0.02,0.11-0.03,0.16-0.06c0.55-0.32,0.66-0.29,0.81,0.3c0.36,1.44,0.83,2.83,1.2,4.26c0.23,0.85,0.35,1.73,0.52,2.59
				c0.08,0.37,0.17,0.75,0.24,1.12c0.1,0.43,0.19,0.86,0.25,1.3c0.13,0.94,0.31,1.88,0.39,2.83c0.05,0.62,0.15,1.24,0.24,1.85
				c0.09,0.62,0.06,1.23,0.11,1.84C179.82,117.44,179.99,118.03,179.96,118.6z"/>
			<path class="st1" d="M151.38,123.59c0.05,0.49,0.04,0.97,0.01,1.46c-0.06,0.95-0.08,1.89-0.23,2.83
				c-0.09,0.56-0.07,1.15-0.14,1.72c-0.09,0.68-0.22,1.37-0.34,2.05c-0.12,0.68-0.25,1.36-0.39,2.03c-0.15,0.67-0.3,1.34-0.5,1.99
				c-0.34,1.1-0.71,2.19-1.1,3.27c-0.25,0.72-0.54,1.44-0.85,2.14c-0.47,1.07-0.94,2.14-1.48,3.17c-0.57,1.09-1.2,2.15-1.85,3.19
				c-0.53,0.83-1.1,1.64-1.69,2.42c-0.55,0.73-1.19,1.41-1.75,2.14c-1.12,1.43-2.42,2.69-3.72,3.94c-1.1,1.04-2.3,1.97-3.48,2.92
				c-1.33,1.06-2.79,1.91-4.17,2.9c-0.38,0.28-0.81,0.49-1.23,0.71c-1.11,0.57-2.19,1.18-3.33,1.69c-1.19,0.55-2.38,1.11-3.65,1.49
				c-0.95,0.28-1.88,0.67-2.83,0.96c-1.03,0.32-2.07,0.62-3.12,0.85c-1.09,0.25-2.18,0.43-3.28,0.62c-0.57,0.1-1.15,0.18-1.73,0.24
				c-1.15,0.13-2.3,0.29-3.45,0.32c-0.46,0.01-0.9,0.12-1.36,0.07c-0.48-0.06-0.97-0.02-1.46-0.02c-0.49,0-0.98,0.03-1.46,0
				c-1.07-0.07-2.13-0.15-3.19-0.25c-0.64-0.05-1.28-0.12-1.91-0.24c-1-0.18-1.98-0.43-2.98-0.6c-2.28-0.37-4.44-1.12-6.62-1.84
				c-0.74-0.25-1.47-0.58-2.19-0.89c-1.13-0.51-2.29-0.97-3.37-1.57c-1.5-0.82-2.93-1.75-4.39-2.66c-1.17-0.73-2.28-1.54-3.31-2.45
				c-0.58-0.51-1.19-1-1.75-1.51c-0.8-0.74-1.61-1.47-2.36-2.25c-1.18-1.22-2.31-2.48-3.29-3.88c-0.59-0.84-1.26-1.62-1.84-2.47
				c-0.58-0.85-1.14-1.73-1.61-2.63c-0.41-0.78-0.88-1.54-1.2-2.37c-0.45-1.13-1.04-2.2-1.41-3.37c-0.27-0.85-0.64-1.65-0.91-2.49
				c-0.29-0.92-0.54-1.86-0.79-2.79c-0.22-0.82-0.41-1.66-0.59-2.49c-0.05-0.17-0.02-0.36-0.02-0.55c0-0.53-0.05-1.04-0.25-1.54
				c-0.02-0.06,0-0.13,0-0.19c-0.05-0.63-0.04-1.27-0.14-1.89c-0.22-1.45-0.09-2.9-0.09-4.35c-0.02-0.98,0.06-1.97,0.22-2.95
				c0.07-0.5,0.06-1.02,0.13-1.53c0.1-0.74,0.22-1.49,0.36-2.22c0.14-0.69,0.31-1.38,0.49-2.06c0.2-0.81,0.41-1.61,0.65-2.41
				c0.29-0.94,0.6-1.86,0.93-2.78c0.21-0.58,0.47-1.14,0.73-1.71c0.44-0.97,0.86-1.96,1.36-2.91c0.43-0.84,0.94-1.65,1.44-2.45
				c0.5-0.79,0.99-1.59,1.53-2.36c0.6-0.86,1.25-1.68,1.89-2.51c1.22-1.58,2.6-3.03,4.05-4.41c0.98-0.94,2.01-1.84,3.11-2.64
				c0.91-0.67,1.77-1.41,2.69-2.06c0.68-0.48,1.43-0.86,2.14-1.32c1.31-0.83,2.67-1.56,4.08-2.22c2.26-1.07,4.59-1.98,6.97-2.68
				c1-0.3,2.01-0.55,3.03-0.79c1.12-0.28,2.25-0.46,3.4-0.63c0.57-0.08,1.15-0.18,1.72-0.24c0.9-0.1,1.81-0.15,2.71-0.25
				c1.77-0.2,3.55-0.09,5.31-0.08c0.61,0,1.24,0,1.84,0.11c1.07,0.17,2.16,0.2,3.22,0.45c0.8,0.2,1.65,0.22,2.46,0.4
				c1.05,0.21,2.07,0.49,3.1,0.76c0.47,0.13,0.93,0.34,1.4,0.43c0.33,0.07,0.25,0.27,0.15,0.36c-0.84,0.76-1.18,1.82-1.67,2.79
				c-0.42,0.83-0.66,1.72-0.98,2.58c-0.5,1.38-0.7,2.83-1.17,4.21c-0.07,0.18-0.09,0.37-0.14,0.55c-0.13,0.38-0.24,0.46-0.58,0.35
				c-1.03-0.36-2.11-0.52-3.17-0.73c-1-0.19-2.02-0.26-3.02-0.37c-1.11-0.13-2.2-0.06-3.31-0.09c-0.93-0.03-1.85,0.09-2.77,0.23
				c-0.48,0.07-0.98,0.07-1.47,0.13c-0.47,0.06-0.95,0.14-1.42,0.25c-0.64,0.14-1.29,0.31-1.93,0.48c-0.54,0.15-1.08,0.34-1.63,0.49
				c-1.36,0.36-2.66,0.9-3.96,1.48c-1.8,0.8-3.5,1.8-5.11,2.94c-0.79,0.57-1.56,1.19-2.3,1.81c-0.79,0.67-1.61,1.32-2.31,2.08
				c-1.12,1.21-2.2,2.44-3.14,3.81c-0.75,1.1-1.49,2.23-2.1,3.4c-0.69,1.33-1.32,2.7-1.79,4.14c-0.32,0.99-0.63,1.98-0.87,2.99
				c-0.12,0.5-0.24,1-0.33,1.51c-0.14,0.76-0.25,1.52-0.37,2.28c0,0.02,0,0.05,0,0.06c-0.04,0.49-0.15,0.99-0.1,1.47
				c0.06,0.67-0.08,1.32-0.03,1.98c0.06,0.79,0.03,1.6,0.14,2.38c0.15,1.09,0.35,2.16,0.57,3.24c0.3,1.39,0.66,2.76,1.13,4.11
				c0.17,0.47,0.36,0.95,0.56,1.41c0.69,1.57,1.5,3.09,2.44,4.54c0.62,0.94,1.31,1.81,1.99,2.71c0.98,1.31,2.16,2.43,3.34,3.54
				c0.88,0.83,1.87,1.53,2.85,2.25c0.65,0.47,1.34,0.88,2.02,1.3c1.1,0.67,2.24,1.25,3.41,1.77c0.85,0.37,1.69,0.74,2.56,1.03
				c1.03,0.34,2.04,0.74,3.11,0.91c0.58,0.09,1.15,0.26,1.72,0.39c0.32,0.07,0.64,0.17,0.96,0.21c0.42,0.06,0.86,0.06,1.28,0.13
				c2.01,0.34,4.04,0.22,6.06,0.24c0.6-0.27,1.25-0.01,1.86-0.23c0.34-0.12,0.74-0.09,1.1-0.14c1.17-0.14,2.31-0.36,3.43-0.69
				c0.98-0.29,1.96-0.57,2.93-0.9c0.79-0.28,1.55-0.68,2.35-0.95c1.01-0.34,1.9-0.91,2.83-1.41c0.97-0.52,1.89-1.15,2.79-1.8
				c0.82-0.59,1.63-1.22,2.39-1.89c0.97-0.87,1.94-1.76,2.83-2.72c0.85-0.94,1.62-1.95,2.37-2.98c1.05-1.42,1.89-2.97,2.64-4.57
				c0.5-1.06,0.95-2.13,1.3-3.25c0.22-0.72,0.48-1.43,0.67-2.15c0.18-0.65,0.3-1.31,0.42-1.97c0.13-0.72,0.24-1.44,0.36-2.16
				c0-0.02,0-0.05,0-0.06c0.04-1.57,0.17-3.14,0.09-4.71c-0.05-0.89-0.14-1.81-0.3-2.71c-0.24-1.35-0.45-2.68-0.88-3.97
				c-0.03-0.1-0.01-0.21-0.01-0.32c-0.4-1.03-0.67-2.04-1.1-2.97c-0.09-0.18-0.21-0.4-0.17-0.57c0.04-0.24,0.34-0.12,0.51-0.19
				c0.4-0.19,0.78-0.15,1.19-0.03c0.19,0.06,0.4,0.03,0.6,0.03c0.88,0,1.73,0.23,2.6,0.34c1.16,0.15,2.27,0.54,3.41,0.77
				c0.55,0.12,1.07,0.34,1.61,0.51c0.65,0.2,1.3,0.4,1.95,0.58c0.52,0.14,1.05,0.22,1.55,0.38c0.28,0.08,0.49,0.3,0.55,0.6
				c0.22,1.03,0.4,2.07,0.62,3.1c0.19,0.83,0.29,1.68,0.39,2.53c0.11,1,0.18,2,0.25,3.01C151.33,122.67,151.34,123.13,151.38,123.59
				z"/>
		</g>
		<g>
		</g>
	</g>
	<path class="st1" d="M136.43,89.09c-0.56,0.11-1.1,0.31-1.66,0.41c-1.42,0.25-2.69,0.89-3.95,1.5c-1.51,0.73-2.83,1.8-4.07,2.92
		c-1.14,1.03-2.23,2.12-3.05,3.45c-0.34,0.54-0.35,0.68,0.18,1.16c0.17-0.05,0.27-0.15,0.37-0.13c0.31,0.04,0.45-0.12,0.63-0.35
		c0.5-0.65,1.04-1.27,1.59-1.87c0.26-0.29,0.62-0.47,0.87-0.76c0.86-0.96,1.94-1.65,2.98-2.35c1.13-0.76,2.38-1.34,3.71-1.72
		c0.95-0.27,1.92-0.49,2.87-0.75c1.02-0.27,2.06-0.34,3.09-0.5c0.61-0.1,1.26-0.04,1.91,0.09c0.98,0.19,1.94,0.37,2.89,0.69
		c0.63,0.22,1.29,0.38,1.98,0.34c0.34-0.02,0.52-0.17,0.65-0.42c0.2-0.38,0.04-0.79-0.42-0.99c-0.23-0.11-0.53-0.07-0.78-0.16
		c-0.87-0.32-1.78-0.49-2.66-0.73c-0.97-0.26-1.94-0.42-2.93-0.39c-0.61,0.02-1.23,0.06-1.84,0.14
		C138,88.78,137.21,88.93,136.43,89.09z M124.79,97.28c0.03,0.02,0.06,0.04,0.08,0.06C124.79,97.36,124.79,97.32,124.79,97.28z"/>
</g>
</svg>
